<svg width="322" height="250" viewBox="0 0 322 250" fill="none" xmlns="http://www.w3.org/2000/svg">
<g clip-path="url(#clip0_2_2992)">
<path d="M42.8868 245.809H2.01724C1.27853 245.809 0.679688 246.407 0.679688 247.146V247.793C0.679688 248.531 1.27853 249.13 2.01724 249.13H42.8868C43.6255 249.13 44.2243 248.531 44.2243 247.793V247.146C44.2243 246.407 43.6255 245.809 42.8868 245.809Z" fill="#ADBEC4"/>
<path d="M314.26 245.809H273.39C272.652 245.809 272.053 246.407 272.053 247.146V247.793C272.053 248.531 272.652 249.13 273.39 249.13H314.26C314.999 249.13 315.597 248.531 315.597 247.793V247.146C315.597 246.407 314.999 245.809 314.26 245.809Z" fill="#ADBEC4"/>
<path d="M99.8809 245.809H59.0114C58.2727 245.809 57.6738 246.407 57.6738 247.146V247.793C57.6738 248.531 58.2727 249.13 59.0114 249.13H99.8809C100.62 249.13 101.218 248.531 101.218 247.793V247.146C101.218 246.407 100.62 245.809 99.8809 245.809Z" fill="#ADBEC4"/>
<path d="M177.087 245.809H110.953C110.214 245.809 109.615 246.407 109.615 247.146V247.793C109.615 248.531 110.214 249.13 110.953 249.13H177.087C177.826 249.13 178.425 248.531 178.425 247.793V247.146C178.425 246.407 177.826 245.809 177.087 245.809Z" fill="#ADBEC4"/>
<path d="M251.469 245.809H187.564C186.825 245.809 186.227 246.407 186.227 247.146V247.793C186.227 248.531 186.825 249.13 187.564 249.13H251.469C252.208 249.13 252.807 248.531 252.807 247.793V247.146C252.807 246.407 252.208 245.809 251.469 245.809Z" fill="#ADBEC4"/>
<path d="M20.3711 195.205C20.3711 195.205 31.5173 224.928 32.1861 234.291C32.1861 234.291 35.0098 236.52 39.7655 234.588C39.7655 234.588 39.9142 206.128 35.2327 197.36C30.5513 188.591 20.3711 195.205 20.3711 195.205Z" fill="#FF8B66"/>
<path d="M17.92 247.443H41.4014C42.0052 245.147 41.8221 242.713 40.8813 240.533C40.8813 240.533 41.9216 236.52 41.55 235.183C41.1785 233.845 36.3485 232.21 35.0109 233.548C34.6708 233.943 34.416 234.405 34.2626 234.904C34.1092 235.402 34.0604 235.927 34.1192 236.446C33.4504 232.73 31.7414 232.433 30.1066 233.919C28.4718 235.406 30.4781 234.662 30.1809 237.115C30.1066 237.263 30.1066 237.412 30.0323 237.56C29.7031 238.26 29.1554 238.834 28.4718 239.195L27.8773 239.567L26.6141 240.013C25.8906 240.247 25.1426 240.396 24.3848 240.459C21.1896 240.756 19.852 240.979 18.3659 242.613C16.8797 244.248 17.8457 245.586 17.8457 245.586L17.92 247.443Z" fill="#CFD8DC"/>
<path d="M30.0321 237.56C29.8793 237.926 29.6515 238.255 29.3633 238.526C29.9086 238.276 30.5195 238.206 31.1074 238.326C31.6953 238.446 32.2296 238.751 32.6328 239.195L33.2273 238.452C32.9159 237.917 32.4076 237.524 31.8109 237.357C31.2141 237.191 30.5759 237.263 30.0321 237.56Z" fill="#ADBEC4"/>
<path d="M30.477 240.904L31.2944 240.384C31.1874 239.92 30.9477 239.498 30.6047 239.168C30.2616 238.838 29.83 238.615 29.3624 238.526C29.1126 238.806 28.8094 239.034 28.4707 239.195C28.9242 239.283 29.3474 239.486 29.6989 239.785C30.0505 240.085 30.3186 240.47 30.477 240.904Z" fill="#ADBEC4"/>
<path d="M28.2481 241.796L29.0654 241.35C29.0207 240.98 28.8898 240.627 28.6833 240.317C28.4768 240.007 28.2005 239.75 27.8765 239.567L26.6133 240.013C27.0037 240.165 27.354 240.406 27.6374 240.715C27.9207 241.024 28.1296 241.394 28.2481 241.796Z" fill="#ADBEC4"/>
<path d="M68.3745 241.796C69.0889 241.265 69.6734 240.579 70.0836 239.79C70.3443 237.891 70.3443 235.966 70.0836 234.068C69.6378 231.17 70.901 228.792 75.0623 227.9C79.2235 227.009 81.4528 228.941 80.4868 237.04C81.0813 240.384 81.2299 244.174 79.818 247.443H67.4829C67.4829 247.443 65.5508 243.208 68.3745 241.796Z" fill="#CFD8DC"/>
<path d="M57.5254 198.326C57.7772 204.025 59.3276 209.591 62.0582 214.599C66.6653 222.996 72.387 234.514 72.387 234.514C72.387 234.514 76.1768 238.229 78.6289 232.136C78.6289 232.136 76.9198 210.661 72.9815 202.859C69.0432 195.056 57.5254 198.326 57.5254 198.326Z" fill="#FF8B66"/>
<path d="M77.738 235.331C77.738 235.331 78.8526 232.953 77.8123 231.987C76.772 231.021 75.6573 232.805 73.8739 232.433C72.0905 232.062 71.719 230.798 71.2732 232.433C70.8273 234.068 71.4218 239.418 77.738 235.331Z" fill="#CFD8DC"/>
<path d="M71.1973 235.183C71.1973 235.183 75.8787 236.892 78.2565 235.183L77.6621 237.263C77.6621 237.263 72.6091 237.783 71.866 236.52L71.1973 235.183Z" fill="#ADBEC4"/>
<path d="M71.2727 237.709C71.2727 237.709 75.5083 237.115 77.5889 238.155V239.195C77.5889 239.195 72.0158 237.858 70.2324 239.195L71.2727 237.709Z" fill="#ADBEC4"/>
<path d="M77.8121 241.276C77.4717 240.641 76.9693 240.107 76.356 239.728C75.7426 239.35 75.0401 239.14 74.3196 239.121C72.7796 239.026 71.2551 239.473 70.0098 240.384C71.2891 239.91 72.6619 239.744 74.0174 239.899C75.3728 240.054 76.6728 240.525 77.8121 241.276Z" fill="#ADBEC4"/>
<path d="M76.6232 196.171C76.2328 197.008 75.7598 197.805 75.2113 198.549L74.8398 198.995C72.239 202.19 66.5915 206.425 56.2627 202.264L55.6682 200.704L55.4453 200.183C54.6295 198.192 54.0074 196.127 53.5876 194.016C50.9125 179.006 49.8722 168.157 48.4603 161.989C44.522 171.575 35.605 190.152 35.2335 190.895C34.8619 191.638 36.7196 198.326 36.7196 198.326C29.2888 200.704 18.5884 197.657 18.5884 197.657C18.5884 197.657 15.3932 188.22 14.873 181.458C14.5015 176.331 27.5054 147.425 33.5987 134.198L34.0446 133.157L36.7196 127.51L47.1228 131.077L72.3876 142.446C72.3876 142.446 72.8334 142.966 73.205 148.168C73.2224 148.293 73.2472 148.417 73.2793 148.539C73.5022 151.66 73.7251 156.342 73.8738 163.252V163.698C73.8738 165.184 73.8738 166.819 73.9481 168.602V183.315C73.9481 184.95 73.8738 186.659 73.8738 188.443C73.8738 190.226 75.137 193.124 75.9544 194.833L76.1773 195.279C76.2868 195.594 76.4367 195.894 76.6232 196.171Z" fill="#0C476B"/>
<path d="M75.2101 198.549L74.8386 198.994C73.6496 197.062 71.8662 193.719 71.4947 191.415C71.1231 189.111 70.603 175.216 71.4947 161.617C72.3864 148.019 69.4141 135.535 69.4141 135.387L69.9342 135.238C69.9342 135.387 72.9065 148.391 72.0149 161.692C71.1232 174.993 71.4204 188.071 72.0149 191.341C72.3864 193.421 74.0955 196.542 75.2101 198.549Z" fill="#0E3944"/>
<path d="M71.272 146.756C68.9838 145.987 66.889 144.733 65.1317 143.078C63.3744 141.423 61.9962 139.408 61.0918 137.17L61.6863 136.947C61.6863 137.021 63.6926 143.412 71.4949 146.236L71.272 146.756Z" fill="#0E3944"/>
<path d="M41.4743 131.968C41.0932 132.102 40.6878 132.153 40.2854 132.117C38.7249 132.191 35.9012 132.414 33.5977 134.198L34.0435 133.157C35.964 132.131 38.108 131.595 40.2854 131.597L41.1771 131.448L41.4743 131.968Z" fill="#0E3944"/>
<path d="M48.2375 162.138C42.3672 150.397 49.9466 134.643 50.0209 134.495L50.5411 134.792C50.4668 134.941 42.9616 150.397 48.6834 161.84L48.2375 162.138Z" fill="#0E3944"/>
<path d="M47.048 150.694C46.7443 150.697 46.4425 150.647 46.1562 150.545L46.3049 150.025C46.6527 150.128 47.0185 150.155 47.3776 150.103C47.7366 150.052 48.0803 149.924 48.3855 149.728C49.2772 149.208 49.7974 148.093 50.0203 146.458C50.5404 141.48 54.3302 135.386 54.5531 135.164L54.9989 135.461C54.9246 135.461 51.1349 141.703 50.5404 146.533C50.3175 148.316 49.723 149.579 48.6827 150.248C48.1983 150.565 47.6262 150.721 47.048 150.694Z" fill="#0E3944"/>
<path d="M18.8101 21.695C18.8101 21.695 19.7018 19.54 23.5659 19.54C27.4299 19.54 27.7271 21.1748 27.7271 21.1748C29.5105 26.4507 31.4425 46.4396 32.1113 47.1827L54.7753 64.5708C42.7374 64.7937 42.2915 84.7827 42.2915 84.7827C41.8457 79.8783 25.1263 67.6175 20.8165 59.5922C16.5066 51.5669 14.9461 33.8072 18.8101 21.695Z" fill="#F2A668"/>
<path d="M90.8905 93.1052C89.1071 113.243 81.8249 132.786 79.2984 140.885C78.7783 142.594 78.4068 143.635 78.4068 143.635C78.4068 143.635 38.8748 138.507 34.1934 127.807L34.4163 126.99C35.5309 122.085 41.4013 102.394 42.07 86.3431C42.8131 68.4348 48.8321 62.0443 52.4732 62.8617C52.4732 62.8617 60.6471 69.3265 65.8487 69.3265C71.0502 69.3265 83.6083 63.6048 83.6083 63.6048C83.6083 63.6048 93.1198 68.5835 90.8905 93.1052Z" fill="#FFB878"/>
<path d="M65.9228 61.9701C67.236 61.9701 68.3006 60.9055 68.3006 59.5922C68.3006 58.279 67.236 57.2144 65.9228 57.2144C64.6095 57.2144 63.5449 58.279 63.5449 59.5922C63.5449 60.9055 64.6095 61.9701 65.9228 61.9701Z" fill="#F24052"/>
<path d="M114.816 23.1068C114.816 23.1068 113.925 20.9519 109.986 20.9519C106.048 20.9519 105.899 22.661 105.899 22.661C104.116 27.8626 102.184 47.8515 101.515 48.5946C100.846 49.3376 78.8511 65.9827 78.8511 65.9827C78.331 79.9526 91.3349 86.1945 91.3349 86.1945C91.7065 81.2902 108.5 69.0293 112.736 61.004C116.971 52.9787 118.68 35.2934 114.816 23.1068Z" fill="#F2A668"/>
<path d="M60.9446 69.0294C60.9446 69.0294 58.7896 69.9211 58.3438 70.8128C57.8979 71.7045 59.5327 75.6429 62.728 75.9401C65.9232 76.2373 72.0165 72.5962 71.7193 71.333C71.422 70.0698 66.9635 68.6579 60.9446 69.0294Z" fill="#F2A668"/>
<path d="M60.573 64.5708C60.573 64.5708 61.8362 69.4751 59.9785 71.4072C59.9785 71.4072 62.9508 76.2372 69.6386 71.3329C69.6386 71.3329 68.3753 68.1376 69.6386 66.057L60.573 64.5708Z" fill="#EF6E4B"/>
<path d="M79.5955 51.1953C79.5878 50.6281 79.3836 50.081 79.0177 49.6475C78.6519 49.2139 78.147 48.9205 77.5892 48.8175C78.0522 48.3678 78.3192 47.7537 78.3323 47.1084C78.3323 46.4777 78.0818 45.8729 77.6358 45.427C77.1899 44.981 76.5851 44.7305 75.9544 44.7305C76.2129 44.3335 76.3426 43.8664 76.326 43.393C76.3359 43.0745 76.2818 42.7573 76.1667 42.4601C76.0517 42.163 75.8781 41.892 75.6563 41.6633C75.4345 41.4346 75.169 41.2527 74.8756 41.1286C74.5821 41.0045 74.2667 40.9406 73.9481 40.9408C73.6734 40.9368 73.4006 40.9874 73.1456 41.0894C72.8905 41.1914 72.6581 41.343 72.4619 41.5352C72.4619 40.8849 72.2036 40.2612 71.7437 39.8013C71.2838 39.3414 70.6601 39.0831 70.0098 39.0831C69.6098 39.0911 69.2178 39.1969 68.8681 39.3912C68.5184 39.5854 68.2216 39.8623 68.0034 40.1977C67.8447 39.7148 67.5353 39.2954 67.1207 39.0012C66.7061 38.707 66.2082 38.5534 65.6999 38.5629C65.2789 38.5592 64.8644 38.6672 64.4988 38.8761C64.1333 39.085 63.8297 39.3872 63.6192 39.7519C63.1725 39.3395 62.5921 39.1021 61.9845 39.0831C61.3787 39.0819 60.7954 39.3119 60.3535 39.7262C59.9116 40.1405 59.6445 40.7078 59.6066 41.3123C59.2027 41.0696 58.7403 40.9412 58.2691 40.9408C57.9504 40.9406 57.635 41.0045 57.3416 41.1286C57.0481 41.2527 56.7826 41.4346 56.5608 41.6633C56.339 41.892 56.1655 42.163 56.0504 42.4601C55.9354 42.7573 55.8812 43.0745 55.8912 43.393C55.8792 43.5696 55.9046 43.7468 55.9655 43.9131H55.8912C55.2408 43.9131 54.6171 44.1715 54.1572 44.6313C53.6974 45.0912 53.439 45.7149 53.439 46.3653C53.4704 46.9702 53.7062 47.5466 54.1078 48.0001C53.5636 48.1182 53.0759 48.418 52.7247 48.8501C52.3736 49.2823 52.18 49.8211 52.1758 50.3779C52.1819 50.8725 52.333 51.3544 52.6104 51.7639C52.8877 52.1733 53.2792 52.4924 53.7363 52.6815C53.4247 52.8953 53.1726 53.1847 53.0036 53.5227C52.8346 53.8606 52.7543 54.236 52.7702 54.6135C52.7657 55.1959 52.975 55.7597 53.3585 56.198C53.742 56.6363 54.2731 56.9186 54.8509 56.9914C55.1862 58.2502 55.9817 59.3374 57.0801 60.038C58.1204 61.004 67.0374 62.0443 71.3473 61.6728C71.6853 62.0024 72.1112 62.2274 72.574 62.3209C73.0367 62.4143 73.5166 62.3722 73.956 62.1996C74.3954 62.027 74.7756 61.7312 75.051 61.3477C75.3265 60.9643 75.4853 60.5095 75.5086 60.038C76.0998 59.9823 76.6488 59.7074 77.0476 59.2674C77.4464 58.8273 77.6661 58.254 77.6635 57.6601C77.6635 57.4372 77.5892 57.2143 77.5892 57.0657C78.0071 56.8603 78.3601 56.5434 78.6093 56.15C78.8584 55.7566 78.994 55.302 79.0011 54.8364C79.0256 54.27 78.8404 53.7144 78.4809 53.2759C78.8267 53.0509 79.1102 52.7423 79.305 52.3786C79.4999 52.0149 79.5998 51.6079 79.5955 51.1953Z" fill="#F24052"/>
<path d="M73.725 55.7281C73.725 55.7281 76.2515 53.2017 76.6231 56.174C76.9946 59.1463 73.8736 60.9297 73.2792 59.8894C72.6847 58.8491 73.725 55.7281 73.725 55.7281Z" fill="#FF8B66"/>
<path d="M56.1142 55.8768C56.1142 55.8768 53.5877 53.4246 53.2162 56.3227C52.8446 59.2207 55.9656 61.1527 56.56 60.0381C57.1545 58.9235 56.1142 55.8768 56.1142 55.8768Z" fill="#FF8B66"/>
<path d="M65.1792 68.0634C70.7523 68.0634 73.9475 64.4223 73.9475 53.4247C73.9475 47.7773 71.0495 44.3591 64.8076 44.3591C58.5657 44.3591 55.8906 47.7773 55.8906 53.4247C55.8906 65.2397 59.3831 68.0634 65.1792 68.0634Z" fill="#FF8B66"/>
<path d="M57.7481 57.3631C57.5995 57.9575 58.1196 58.4777 58.8627 58.6263C59.6058 58.7749 60.2002 58.4034 60.2746 57.8089C60.2846 57.6527 60.2638 57.496 60.2131 57.3479C60.1625 57.1998 60.0832 57.0632 59.9796 56.9458C59.876 56.8284 59.7503 56.7327 59.6097 56.664C59.469 56.5953 59.3162 56.5551 59.1599 56.5457C58.8659 56.493 58.5628 56.5462 58.3044 56.6959C58.0459 56.8455 57.8488 57.0819 57.7481 57.3631Z" fill="#DB614D"/>
<path d="M69.2661 57.6601C69.2834 57.8145 69.3329 57.9636 69.4113 58.0977C69.4896 58.2319 69.5952 58.3481 69.7211 58.4391C69.847 58.53 69.9906 58.5937 70.1426 58.6259C70.2946 58.6581 70.4516 58.6582 70.6036 58.6261C71.3467 58.5518 71.8669 58.106 71.8669 57.5115C71.7956 57.2028 71.6108 56.9321 71.3493 56.7532C71.0878 56.5742 70.7686 56.5001 70.455 56.5455C69.7862 56.6198 69.1918 57.14 69.2661 57.6601Z" fill="#DB614D"/>
<path d="M60.2012 51.4926H60.4241C61.09 51.0821 61.8809 50.9239 62.6534 51.0467C62.802 51.121 62.9506 50.9724 62.9506 50.8238C62.9506 50.6752 62.9506 50.5266 62.7277 50.5266C61.8024 50.3693 60.8515 50.5542 60.0526 51.0467C59.9783 51.121 59.904 51.3439 60.0526 51.4183C60.0672 51.444 60.0891 51.4649 60.1156 51.4781C60.142 51.4913 60.1719 51.4964 60.2012 51.4926Z" fill="#F24052"/>
<path d="M70.9011 51.4927H71.124C71.1983 51.344 71.1983 51.1954 71.0497 51.1211C70.2736 50.5702 69.3186 50.3314 68.3746 50.4523C68.3032 50.4832 68.2433 50.5356 68.2033 50.6022C68.1634 50.6689 68.1453 50.7464 68.1516 50.8239C68.1516 50.9725 68.3003 51.0468 68.4489 51.0468C69.2313 50.9238 70.0309 51.1104 70.6781 51.567L70.9011 51.4927Z" fill="#F24052"/>
<path d="M60.7949 54.6135C60.7949 55.3566 61.0922 55.8767 61.4637 55.8767C61.8352 55.8767 62.2068 55.3566 62.2068 54.6135C62.2068 53.8704 61.8352 53.4246 61.4637 53.4246C61.0922 53.4246 60.7949 53.9447 60.7949 54.6135Z" fill="#1A4850"/>
<path d="M68.2266 54.6135C68.2266 55.3566 68.5981 55.8767 68.9696 55.8767C69.3412 55.8767 69.6384 55.3566 69.6384 54.6135C69.6384 53.8704 69.3412 53.4246 68.9696 53.4246C68.5981 53.4246 68.2266 53.9447 68.2266 54.6135Z" fill="#1A4850"/>
<path d="M71.4218 47.0342L59.0123 46.1425C59.0123 46.1425 55.8914 49.4121 56.1143 57.4374C56.1143 57.4374 51.0613 42.9473 65.7001 42.9473C80.3388 42.9473 73.7254 57.0658 73.7254 57.0658C73.7254 57.0658 74.1712 49.7093 71.4218 47.0342Z" fill="#F24052"/>
<path d="M64.8084 58.4034L65.2543 57.9576L64.1397 56.8429C65.18 55.3568 65.18 51.8643 65.18 51.6414H64.5855C64.5855 51.7157 64.5855 55.5054 63.5452 56.6943L63.3223 56.9172L64.8084 58.4034Z" fill="#DB614D"/>
<path d="M68.5226 60.1868C68.5226 60.1868 63.0238 60.484 60.2744 59.741C60.1968 60.2736 60.2382 60.8168 60.3958 61.3315C60.5533 61.8462 60.823 62.3196 61.1854 62.7176C61.5478 63.1155 61.994 63.4282 62.4918 63.633C62.9895 63.8379 63.5265 63.9298 64.0641 63.9022C68.5226 64.1252 68.5226 60.1868 68.5226 60.1868Z" fill="#1A4850"/>
<path d="M23.9375 19.02C23.9375 19.02 19.7763 19.2429 19.8506 20.5804C19.9249 21.918 19.8506 23.4784 23.3431 23.3298C26.8356 23.1812 26.8356 21.7694 26.8356 20.4318C26.8356 19.0943 25.1265 18.9456 23.9375 19.02Z" fill="#FFB878"/>
<path d="M111.101 19.7629C111.101 19.7629 106.94 19.7629 106.865 21.1005C106.791 22.438 106.717 23.9985 110.209 23.9985C113.702 23.9985 113.776 22.661 113.924 21.3977C114.073 20.1345 112.215 19.7629 111.101 19.7629Z" fill="#FFB878"/>
<path d="M17.3981 10.6975C18.0388 11.7627 18.5857 12.8815 19.0329 14.0413C19.4044 16.2706 19.6273 17.4595 20.4447 18.4998C21.2621 19.5401 20.8163 21.3235 20.8163 21.3235C20.8163 21.3235 23.7886 22.8097 26.3151 20.952C26.2 20.1885 26.2 19.412 26.3151 18.6484C26.8352 17.6824 28.5443 17.088 29.0645 15.0817C29.6219 13.5421 30.3977 12.0906 31.368 10.7718C31.368 10.7718 30.8479 9.73146 29.9562 10.3259C29.0645 10.9204 28.5443 12.6295 28.0242 12.7781H27.7269C27.5478 12.8188 27.3618 12.82 27.1822 12.7815C27.0025 12.743 26.8334 12.6658 26.6866 12.5552C25.8692 11.5892 25.6463 8.83976 25.7206 7.57652C25.7949 6.31328 25.6463 3.48957 24.606 3.86111C23.5657 4.23265 24.5317 5.27297 23.7143 9.06269H23.3427C23.2684 9.28561 22.5254 6.68482 22.3767 4.30696C22.2281 1.9291 21.1135 3.19233 20.8906 3.7868C20.6677 4.38127 21.0392 5.94174 21.1135 7.13067C21.1153 7.85148 21.1649 8.57138 21.2621 9.28561L20.8163 9.58284C19.1072 6.68482 19.7016 5.49589 18.7356 5.42158C17.7696 5.34728 18.0669 7.87375 18.587 8.76545C18.8645 9.44026 19.0881 10.136 19.2558 10.8461C17.5467 8.83976 17.6953 7.87376 16.9522 7.94806C16.2092 8.02237 16.8036 10.0287 17.3981 10.6975Z" fill="#FF8B66"/>
<path d="M24.8302 15.3045C25.3503 13.6697 27.431 12.9266 27.7282 12.8523C27.549 12.8931 27.3631 12.8942 27.1834 12.8557C27.0037 12.8172 26.8346 12.74 26.6879 12.6294C26.1399 12.8289 25.6671 13.1931 25.3345 13.6721C25.0018 14.1511 24.8257 14.7213 24.8302 15.3045Z" fill="#EF6E4B"/>
<path d="M116.304 11.2919C115.669 12.3234 115.146 13.4194 114.743 14.5615C114.298 16.7907 114.075 18.054 113.257 19.02C112.44 19.986 112.96 21.8437 112.96 21.8437C112.96 21.8437 109.913 23.4042 107.387 21.4722C107.387 21.4722 107.684 19.6888 107.387 19.1686C107.09 18.6484 105.232 17.6824 104.637 15.6018C104.092 14.0711 103.343 12.6212 102.408 11.2919C102.447 11.1586 102.52 11.0375 102.619 10.9399C102.718 10.8424 102.84 10.7717 102.974 10.7345C103.108 10.6973 103.249 10.6949 103.384 10.7274C103.519 10.7599 103.643 10.8264 103.746 10.9204C104.637 11.5892 105.232 13.1496 105.678 13.3726H106.049C106.398 13.4036 106.745 13.2969 107.015 13.0753H107.09C107.907 12.1093 108.056 9.2856 108.056 8.09667C108.056 6.90774 108.056 3.93541 109.096 4.30696C110.136 4.6785 109.17 5.71881 109.988 9.50853H110.433C110.508 9.80576 111.251 7.20497 111.399 4.7528C111.548 2.30063 112.588 3.71249 112.886 4.23265C113.183 4.75281 112.737 6.38759 112.663 7.65083C112.588 8.91406 112.514 9.2856 112.514 9.73145L112.96 10.0287C114.595 7.13067 114.075 5.94174 115.041 5.86743C116.007 5.79312 115.635 8.24529 115.115 9.2113C114.821 9.84796 114.621 10.5237 114.52 11.2176C116.23 9.2856 116.007 8.24529 116.824 8.39391C117.641 8.54252 116.898 10.6232 116.304 11.2919Z" fill="#FF8B66"/>
<path d="M108.947 15.8248C108.352 14.2643 106.272 13.5212 106.049 13.4469C106.397 13.478 106.744 13.3713 107.015 13.1497C107.565 13.3548 108.042 13.7184 108.386 14.1945C108.73 14.6706 108.925 15.2379 108.947 15.8248Z" fill="#EF6E4B"/>
<path d="M79.2984 140.885C78.7783 142.594 78.4068 143.635 78.4068 143.635C78.4068 143.635 38.8748 138.508 34.1934 127.807L34.4163 126.99C36.8685 131.151 67.1862 141.257 79.2984 140.885Z" fill="#F2A668"/>
<path d="M223.828 247.443H243.074C244.411 239.79 242.256 232.136 242.256 232.136L233.488 230.575C232.671 235.405 231.705 237.337 230.367 238.303C229.401 239.047 228.212 239.269 226.8 239.79C226.128 239.991 225.511 240.344 224.996 240.82C224.481 241.297 224.081 241.885 223.828 242.539C222.936 244.768 223.828 247.443 223.828 247.443Z" fill="#0E3944"/>
<path d="M223.828 242.539C228.584 243.134 238.987 244.1 238.318 241.424C237.649 238.749 233.414 238.452 230.367 238.303C229.401 239.047 228.212 239.269 226.8 239.79C226.128 239.991 225.511 240.344 224.996 240.82C224.481 241.297 224.081 241.885 223.828 242.539Z" fill="#205260"/>
<path d="M288.252 247.443H307.498C307.897 246.248 308.024 244.979 307.869 243.728C307.775 242.822 307.414 241.964 306.832 241.263C306.25 240.562 305.473 240.049 304.6 239.79C302.891 239.195 301.628 238.972 300.587 238.006C299.547 237.04 298.581 234.96 297.912 230.575L289.07 232.136C289.07 232.136 286.915 239.79 288.252 247.443Z" fill="#0E3944"/>
<path d="M307.87 243.728C307.776 242.822 307.415 241.964 306.833 241.263C306.251 240.562 305.474 240.049 304.601 239.79C302.892 239.195 301.628 238.972 300.588 238.006C298.136 238.749 294.718 240.087 293.677 242.242C292.637 244.397 303.486 244.62 307.87 243.728Z" fill="#205260"/>
<path d="M299.25 231.913C299.25 231.913 297.764 236.669 288.179 233.399C288.179 233.399 281.119 179.897 280.005 178.708C278.89 177.519 267.595 142.669 267.595 142.669H264.028C264.028 142.669 252.733 177.594 251.693 178.708C250.653 179.823 243.445 233.399 243.445 233.399C233.859 236.669 232.373 231.913 232.373 231.913L236.98 174.25L246.64 114.803L265.812 116.958L285.058 114.803L287.584 130.334V130.928L294.569 174.25L299.25 231.913Z" fill="#8B383E"/>
<path d="M287.659 130.928C285.71 130.42 283.911 129.454 282.412 128.11C280.912 126.765 279.756 125.082 279.039 123.2L279.559 123.052C280.235 124.808 281.312 126.382 282.706 127.647C284.1 128.911 285.771 129.832 287.585 130.334L287.659 130.928Z" fill="#662C33"/>
<path d="M267.148 137.393C266.894 137.642 266.592 137.837 266.259 137.965C265.927 138.093 265.572 138.151 265.216 138.136C265.216 139.622 265.216 141.108 265.142 142.669H264.547C264.744 138.43 264.619 134.182 264.176 129.962H264.696C264.696 130.036 265.142 133.38 265.216 137.69C265.508 137.69 265.797 137.631 266.065 137.516C266.333 137.401 266.575 137.233 266.777 137.021C268.56 135.089 267.52 129.516 267.52 129.442H268.04C268.114 129.516 269.154 135.238 267.148 137.393Z" fill="#662C33"/>
<path d="M318.943 10.2517C317.833 10.7346 316.765 11.3062 315.747 11.9608C314.038 13.4469 313.147 14.2643 311.883 14.6359C310.62 15.0074 310.546 17.2367 310.546 17.2367C310.546 17.2367 305.864 19.243 304.973 16.1963C304.973 16.1963 306.979 11.8122 307.128 11.2177C307.276 10.6232 306.31 8.69121 307.053 6.68489C307.539 5.14601 307.789 3.54274 307.796 1.92916C307.796 1.92916 308.837 1.3347 309.208 2.37502C309.58 3.41533 308.985 5.12442 309.283 5.49596L309.431 5.79319H309.505C309.617 5.91804 309.755 6.01626 309.909 6.08058C310.063 6.14489 310.23 6.17366 310.397 6.16473H310.471C311.735 5.8675 313.518 3.78687 314.261 2.74656C315.004 1.70624 316.788 -0.52301 317.382 0.442997C317.977 1.409 316.639 1.63193 315.004 5.12442L315.227 5.42165C315.153 5.64458 317.308 4.0841 318.868 2.2264C320.429 0.36869 320.503 2.07778 320.354 2.67224C320.206 3.26671 318.943 4.38133 318.2 5.27303L316.788 6.83351L316.936 7.35366C320.057 6.01612 320.354 4.75287 321.098 5.27303C321.841 5.79319 320.206 7.57659 319.24 8.02244C318.58 8.34288 317.978 8.76966 317.456 9.28568C320.057 8.69121 320.503 7.79951 321.023 8.39398C321.543 8.98845 319.834 10.1031 318.943 10.2517Z" fill="#FF8B66"/>
<path d="M310.321 9.43407C310.841 7.79929 309.653 6.01589 309.504 5.79297C309.615 5.91782 309.753 6.01604 309.907 6.08036C310.062 6.14467 310.229 6.17343 310.396 6.16451C310.724 6.64983 310.893 7.2253 310.88 7.81114C310.867 8.39698 310.671 8.96417 310.321 9.43407Z" fill="#EF6E4B"/>
<path d="M174.561 37.7457C175.784 37.7469 177.004 37.8714 178.202 38.1172C180.283 38.9346 181.472 39.3805 182.735 39.2318C183.998 39.0832 184.89 41.1639 184.89 41.1639C184.89 41.1639 190.017 41.3125 189.72 38.1172C189.72 38.1172 186.228 34.7734 185.93 34.3275C185.633 33.8817 185.782 31.6524 184.296 30.0919C183.279 28.8321 182.453 27.4301 181.843 25.9307C181.843 25.9307 180.654 25.7821 180.729 26.8224C180.803 27.8627 181.918 29.2745 181.843 29.7947C181.769 30.3149 181.769 30.0176 181.695 30.0919C181.649 30.2593 181.564 30.4137 181.448 30.5427C181.332 30.6717 181.188 30.7718 181.026 30.835H180.952C179.688 31.0579 177.236 29.7204 176.196 29.0516C175.156 28.3828 172.629 26.971 172.406 28.0856C172.183 29.2002 173.521 28.8287 176.419 31.5038L176.196 31.8753C176.419 32.0983 173.818 31.3552 171.663 30.2406C169.508 29.1259 170.103 30.7607 170.474 31.2066C170.846 31.6524 172.406 32.2469 173.447 32.8413L175.379 33.8073V34.3275C172.035 34.2532 171.366 33.1386 170.771 33.956C170.177 34.7734 172.481 35.6651 173.595 35.7394C174.303 35.8497 174.999 36.0238 175.676 36.2595C173.075 36.7054 172.258 36.0366 171.96 36.7797C171.663 37.5228 173.669 37.8943 174.561 37.7457Z" fill="#FF8B66"/>
<path d="M182.288 33.8072C181.174 32.544 181.694 30.389 181.694 30.0918C181.648 30.2592 181.564 30.4135 181.447 30.5425C181.331 30.6715 181.187 30.7716 181.025 30.8349C180.906 31.4 180.964 31.988 181.19 32.5195C181.416 33.0509 181.799 33.5004 182.288 33.8072Z" fill="#EF6E4B"/>
<path d="M311.809 18.2025C311.809 18.2025 311.363 20.0602 310.471 22.8839C310.174 24.0728 309.802 25.4104 309.356 26.8222L307.127 33.8072C306.681 35.1447 306.236 36.4823 305.715 37.7455C304.754 40.5766 303.587 43.3334 302.223 45.9937L301.777 46.8111C301.23 47.6809 300.609 48.5014 299.919 49.2633C298.656 50.6752 296.947 52.3843 295.015 54.1676C293.083 55.951 293.009 56.0254 291.894 56.917C290.779 57.8087 288.327 59.9637 286.544 61.4499L283.2 64.1249C277.627 68.5834 273.02 72.0016 273.02 72.0016L264.697 54.985C267.075 53.4246 271.459 50.7495 276.066 48.0001L279.262 45.9937L284.092 43.17L287.436 41.1637L290.854 39.1574L292.34 38.2657L293.38 36.3337C294.123 34.9218 295.164 32.7669 296.427 30.389L298.136 27.1195L301.034 21.695C301.628 20.5803 302.297 19.4657 302.817 18.4254C304.452 15.5274 305.79 13.2238 306.458 12.2578C307.748 12.7687 308.903 13.5712 309.831 14.6025C310.759 15.6338 311.436 16.866 311.809 18.2025Z" fill="#CFD8DC"/>
<path d="M286.544 61.45L283.2 64.1251C282.409 58.1796 279.934 52.5845 276.066 48.0002L279.262 45.9939C282.934 50.4619 285.437 55.7735 286.544 61.45Z" fill="#8BBDDB"/>
<path d="M295.015 54.1678C293.975 55.0595 293.009 56.0255 291.894 56.9172C289.962 49.5606 286.395 45.2508 284.092 43.1701L287.436 41.1638C290.941 44.8484 293.537 49.3015 295.015 54.1678Z" fill="#8BBDDB"/>
<path d="M302.223 45.9938L301.777 46.8112C301.23 47.681 300.608 48.5015 299.919 49.2634C297.545 45.3655 294.472 41.9395 290.854 39.1575L292.34 38.2658L293.38 36.3337C296.839 39.0448 299.827 42.3088 302.223 45.9938Z" fill="#8BBDDB"/>
<path d="M307.126 33.8074C306.68 35.1449 306.234 36.4825 305.714 37.7457C302.959 34.8919 299.835 32.4179 296.426 30.3892L298.135 27.1196C301.359 29.0257 304.373 31.2674 307.126 33.8074Z" fill="#8BBDDB"/>
<path d="M310.47 22.884C310.173 24.073 309.802 25.4105 309.356 26.8224C306.884 24.6657 304.071 22.9332 301.033 21.6951C301.628 20.5805 302.296 19.4659 302.817 18.4255C305.557 19.5593 308.132 21.0591 310.47 22.884Z" fill="#8BBDDB"/>
<path d="M241.661 59.4435L240.175 78.2435L228.435 74.8996L224.571 73.7107L217.511 71.3328L213.87 69.9953C211.438 69.111 209.057 68.0939 206.737 66.9486C205.822 66.5121 204.951 65.9896 204.136 65.3882L203.467 64.7937C201.515 63.0821 199.701 61.2185 198.042 59.2206C197.225 58.2546 196.333 57.2886 195.516 56.2483C194.699 55.2079 192.172 52.1613 190.612 50.2293L188.308 47.1827C185.633 43.7645 183.85 41.238 183.85 41.238C183.998 36.7795 187.268 35.5906 187.268 35.5906C189.719 37.2676 192.075 39.0785 194.327 41.0151L197.225 43.3929L202.129 47.4799L205.027 49.9321L208.52 52.9044L209.857 54.019L212.012 54.3162L216.768 55.1336L220.484 55.7281L225.611 56.5455L229.252 57.14C234.305 57.9573 238.986 58.8491 241.661 59.4435Z" fill="#CFD8DC"/>
<path d="M228.434 74.8998L224.57 73.7109C223.981 67.9706 224.332 62.1727 225.61 56.5457L229.251 57.1401C227.945 62.967 227.669 68.9775 228.434 74.8998Z" fill="#8BBDDB"/>
<path d="M220.483 55.7283C218.749 60.7604 217.748 66.0158 217.51 71.333L213.869 69.9954C214.145 64.9316 215.12 59.9303 216.767 55.1338L220.483 55.7283Z" fill="#8BBDDB"/>
<path d="M212.012 54.3164C209.824 58.3347 208.056 62.5679 206.736 66.9488C205.822 66.5123 204.951 65.9898 204.136 65.3883L203.467 64.7939C204.821 60.6984 206.511 56.7217 208.52 52.9045L209.857 54.0192L212.012 54.3164Z" fill="#8BBDDB"/>
<path d="M205.027 49.9322C202.44 52.8251 200.103 55.9325 198.042 59.2207C197.225 58.2547 196.333 57.2887 195.516 56.2484C197.538 53.1927 199.747 50.2643 202.129 47.48L205.027 49.9322Z" fill="#8BBDDB"/>
<path d="M197.226 43.393C194.858 45.5078 192.647 47.7927 190.612 50.2294L188.309 47.1827C190.164 44.985 192.176 42.9238 194.328 41.0151L197.226 43.393Z" fill="#8BBDDB"/>
<path d="M291.373 119.336C291.373 119.336 280.97 130.185 266.852 132.86C259.079 134.315 251.201 135.135 243.296 135.312C243.296 135.312 242.701 132.414 241.735 128.03C241.438 126.841 241.215 125.578 240.918 124.24C240.621 122.903 239.803 119.187 239.209 116.364C238.912 115.1 238.689 113.912 238.391 112.648C238.094 111.385 237.425 107.967 236.905 105.589C236.682 104.326 236.385 103.137 236.162 101.874C235.568 98.8269 234.973 95.8546 234.379 93.0309L233.71 89.2412C233.041 85.8973 232.521 82.7764 232.075 80.3242C231.629 77.872 231.704 77.5005 231.555 76.4602C231.407 75.4199 231.481 75.7914 231.481 75.4942C231.332 72.8934 231.184 70.5155 231.184 68.3606V64.4965C231.258 60.4096 231.481 57.8831 231.481 57.8831C234.453 55.8768 254.665 62.4159 254.665 62.4159C254.665 62.4159 269.601 49.5606 271.979 50.4523C273.511 51.2236 274.798 52.4074 275.694 53.8705C276.428 54.9447 277.098 56.0612 277.701 57.2143C278.871 59.5902 279.864 62.049 280.673 64.5709C281.119 65.8093 281.565 67.1469 282.01 68.5835C282.679 70.887 283.274 73.2649 283.942 75.7171L284.834 79.5068L286.395 86.789C286.618 88.1266 286.84 89.3898 287.138 90.653L288.252 97.1179L288.921 101.13C289.367 103.954 289.738 106.629 290.11 109.007C290.482 111.385 290.482 111.757 290.63 112.946C291.15 116.884 291.373 119.336 291.373 119.336Z" fill="#CFD8DC"/>
<path d="M277.701 57.2145C273.168 61.8216 265.217 68.5836 256.077 70.4413C254.067 70.8114 252.027 70.9856 249.984 70.9615C244.039 70.9615 237.203 69.7726 231.184 68.3607V64.4967C239.209 66.4287 248.869 68.0635 255.334 66.8002C263.954 65.0911 271.682 58.1062 275.694 53.8706C276.428 54.9448 277.098 56.0614 277.701 57.2145Z" fill="#8BBDDB"/>
<path d="M282.01 68.5834C277.329 72.8933 265.811 80.9929 243.741 80.9929C239.843 80.9736 235.949 80.7504 232.075 80.3241C231.852 78.838 231.703 77.5004 231.555 76.4601C263.656 80.4728 277.551 67.989 280.672 64.5708C281.118 65.8093 281.564 67.1468 282.01 68.5834Z" fill="#8BBDDB"/>
<path d="M284.835 79.5068C275.918 84.5597 257.638 93.0309 236.089 93.0309H234.38L233.711 89.2411C256.078 89.9099 275.398 80.5471 283.943 75.717L284.835 79.5068Z" fill="#8BBDDB"/>
<path d="M287.138 90.6531C279.335 94.8887 259.644 104.4 236.905 105.589C236.682 104.326 236.385 103.137 236.162 101.874C259.272 100.833 279.781 90.5045 286.394 86.7891C286.617 88.1266 286.84 89.3899 287.138 90.6531Z" fill="#8BBDDB"/>
<path d="M288.922 101.131C280.005 106.332 260.759 115.992 239.21 116.364C238.913 115.101 238.69 113.912 238.393 112.648C260.239 112.425 280.302 101.874 288.253 97.1179L288.922 101.131Z" fill="#8BBDDB"/>
<path d="M290.63 112.946C281.49 118.073 261.278 128.03 242.999 128.03H241.735C241.438 126.841 241.215 125.578 240.918 124.241C259.495 125.132 281.639 113.763 290.11 109.007C290.259 110.419 290.482 111.757 290.63 112.946Z" fill="#8BBDDB"/>
<path d="M257.415 54.8364C257.415 54.8364 256.82 59.8894 258.678 61.4499C258.678 61.4499 257.712 65.0167 254.963 65.6854C252.213 66.3542 249.91 63.0846 249.91 63.0846C249.91 63.0846 250.727 58.1803 248.721 56.9171L257.415 54.8364Z" fill="#EF6E4B"/>
<path d="M259.867 44.2105C259.867 44.2105 261.874 40.8667 257.118 35.5908C257.118 35.5908 254.889 30.5378 247.235 29.3489C239.581 28.1599 233.859 36.5568 233.859 41.1639C233.859 45.771 236.609 41.1639 236.609 41.1639C236.609 41.1639 237.203 44.3591 238.095 45.8453C238.095 45.8453 237.798 50.4524 240.696 50.4524C243.594 50.4524 259.867 44.2105 259.867 44.2105Z" fill="#105E99"/>
<path d="M242.256 49.7836C242.256 49.7836 239.209 48.2231 239.803 50.9725C240.398 53.7219 243.742 54.465 243.965 53.3504C244.188 52.2358 242.256 49.7836 242.256 49.7836Z" fill="#FF8B66"/>
<path d="M258.306 44.5077C258.306 44.5077 259.867 41.4611 260.981 44.0619C262.096 46.6627 260.015 49.2635 259.124 48.4461C258.232 47.6287 258.306 44.5077 258.306 44.5077Z" fill="#FF8B66"/>
<path d="M253.773 58.3291C248.72 60.0382 244.708 57.6603 241.364 47.7773C239.655 42.65 241.215 38.5631 246.937 36.7054C252.659 34.8477 256.003 37.1512 257.786 42.2785C261.353 52.9046 259.049 56.62 253.773 58.3291Z" fill="#FF8B66"/>
<path d="M257.266 46.3654C257.563 46.8113 257.266 47.4801 256.671 47.8516C256.42 48.0032 256.122 48.0567 255.834 48.0018C255.546 47.947 255.288 47.7876 255.111 47.5544C254.814 47.0342 255.111 46.4398 255.705 46.0682C255.956 45.9166 256.254 45.8631 256.542 45.918C256.83 45.9728 257.088 46.1322 257.266 46.3654Z" fill="#DB614D"/>
<path d="M246.938 50.1552C246.959 50.3018 246.95 50.451 246.913 50.5942C246.875 50.7375 246.81 50.8718 246.72 50.9894C246.63 51.107 246.517 51.2055 246.389 51.2792C246.261 51.3528 246.119 51.4002 245.972 51.4184C245.303 51.567 244.634 51.2698 244.56 50.7496C244.486 50.2295 244.783 49.7093 245.452 49.4864C245.738 49.3876 246.051 49.4018 246.327 49.5261C246.604 49.6504 246.822 49.8754 246.938 50.1552Z" fill="#DB614D"/>
<path d="M253.178 41.9812H253.03C252.321 41.6826 251.527 41.6562 250.8 41.9069C250.652 41.9812 250.503 41.9069 250.503 41.7582C250.477 41.6889 250.478 41.6124 250.506 41.5437C250.533 41.475 250.585 41.419 250.652 41.3867C251.498 41.0903 252.424 41.1168 253.253 41.461C253.401 41.5353 253.401 41.7582 253.401 41.8325L253.178 41.9812Z" fill="#FFB878"/>
<path d="M243.668 45.1765H243.446C243.297 45.1022 243.297 44.9536 243.297 44.805C243.755 44.0135 244.5 43.4282 245.378 43.1702C245.407 43.1587 245.438 43.1534 245.469 43.1547C245.501 43.1561 245.531 43.164 245.559 43.1781C245.587 43.1921 245.612 43.2119 245.632 43.2361C245.652 43.2604 245.666 43.2886 245.675 43.3188C245.701 43.3882 245.7 43.4647 245.672 43.5334C245.645 43.6021 245.593 43.6581 245.526 43.6904C244.808 43.9049 244.198 44.3826 243.817 45.0279C243.817 45.0673 243.801 45.1051 243.774 45.133C243.746 45.1609 243.708 45.1765 243.668 45.1765Z" fill="#FFB878"/>
<path d="M253.699 44.8049C253.922 45.4737 253.773 46.0682 253.402 46.1425C253.03 46.2168 252.659 45.8452 252.436 45.2508C252.213 44.6563 252.287 43.9875 252.659 43.9132C253.03 43.8389 253.476 44.2105 253.699 44.8049Z" fill="#1A4850"/>
<path d="M246.936 47.1084C247.085 47.7029 247.011 48.2973 246.639 48.446C246.268 48.5946 245.822 48.1487 245.599 47.5543C245.376 46.9598 245.525 46.291 245.896 46.1424C246.268 45.9938 246.713 46.4396 246.936 47.1084Z" fill="#1A4850"/>
<path d="M249.166 53.8706C249.166 53.8706 253.847 52.9046 255.779 51.0469C255.779 51.0469 255.482 54.5394 252.956 55.0595C252.276 55.2313 251.562 55.2112 250.893 55.0013C250.224 54.7914 249.626 54.4 249.166 53.8706Z" fill="#1A4850"/>
<path d="M252.286 51.0469C251.899 51.1497 251.499 51.1997 251.097 51.1955V50.6754C251.618 50.601 252.509 50.4524 252.584 50.1552C252.658 49.858 252.584 49.9323 252.361 49.7093C252.138 49.4864 249.686 44.5078 249.611 44.3592L250.131 44.1362C250.131 44.1362 251.618 48.0746 252.807 49.3378C252.954 49.464 253.065 49.6263 253.13 49.8087C253.195 49.9911 253.212 50.1874 253.178 50.3781C252.964 50.6944 252.65 50.9299 252.286 51.0469Z" fill="#DB614D"/>
<path d="M245.452 34.4017C234.082 38.6373 240.919 49.3376 240.919 49.3376L242.554 50.8238C241.811 47.7772 242.331 46.0681 242.331 46.0681C241.599 44.7031 241.388 43.1187 241.736 41.6096C243.148 40.4207 246.641 38.1171 253.18 37.4483C254.177 38.3902 254.875 39.6049 255.186 40.9408C256.752 42.4158 258.014 44.1829 258.901 46.1424L259.05 43.4673C259.05 43.4673 256.449 30.3147 245.452 34.4017Z" fill="#FFB878"/>
<path d="M244.114 233.102L239.136 234.217C239.136 234.217 231.333 192.307 229.55 187.922C227.766 183.538 221.376 169.494 219.147 158.274C218.571 158.261 217.998 158.187 217.438 158.051L216.694 157.828L216.026 157.679C215.803 168.9 213.351 182.647 212.608 186.511C211.864 190.375 212.236 233.845 212.236 233.845L207.109 233.696C197.374 199.143 202.502 186.213 202.502 186.213C202.502 186.213 193.585 155.153 196.706 144.155C197.683 140.837 198.874 137.585 200.272 134.421L200.644 133.752C201.944 130.844 203.46 128.038 205.177 125.355L215.58 126.618L215.728 126.47H216.026V129.739H217.66L221.97 129.516H222.565L226.355 129.293C226.355 129.293 228.584 132.934 231.853 138.73L232.225 139.399L235.94 146.384C241.216 156.564 239.433 185.693 239.433 185.693C239.433 185.693 246.938 197.285 244.114 233.102Z" fill="#8BBDDB"/>
<path d="M208.594 126.544C208.594 126.618 205.845 133.009 200.271 134.421L200.643 133.752C205.622 132.191 208.074 126.395 208.074 126.321L208.594 126.544Z" fill="#6097B2"/>
<path d="M232.224 139.325C225.982 137.988 222.786 131.523 221.969 129.516L221.746 128.922L222.266 128.699C222.341 128.956 222.44 129.205 222.563 129.442C223.455 131.523 226.353 137.244 231.852 138.656L232.224 139.325Z" fill="#6097B2"/>
<path d="M217.436 158.051L216.693 157.828C214.898 154.282 213.598 150.506 212.829 146.607C210.823 137.987 215.281 128.773 215.355 128.699L215.801 128.922C215.801 128.996 211.417 138.062 213.349 146.459L213.572 147.499C213.646 147.722 213.646 147.87 213.721 148.093C214.545 151.553 215.793 154.897 217.436 158.051Z" fill="#6097B2"/>
<path d="M213.424 148.093H213.35V147.499C213.647 147.573 213.944 147.35 214.241 147.053C214.539 146.756 215.43 145.344 214.761 142.074C213.87 137.616 217.139 129.962 217.288 129.591L217.808 129.814C217.808 129.888 214.464 137.69 215.282 141.926C216.099 146.161 215.207 146.83 214.687 147.425C214.534 147.617 214.343 147.776 214.125 147.891C213.908 148.006 213.669 148.075 213.424 148.093Z" fill="#6097B2"/>
<path d="M213.573 85.9717C213.573 85.9717 215.208 82.9251 212.905 77.7978C210.601 72.6706 211.047 58.4777 222.713 59.0722C222.713 59.0722 229.624 57.8832 233.042 62.416C236.46 66.9488 239.358 82.9251 235.717 94.7401C232.076 106.555 208.892 103.434 213.573 85.9717Z" fill="#F24052"/>
<path d="M226.354 129.219C222.767 130.268 218.984 130.465 215.308 129.795C211.631 129.124 208.162 127.603 205.176 125.355C205.176 125.355 203.244 86.0459 206.885 83.4452C208.446 82.2562 211.641 83.2222 214.613 84.6341C217.278 85.8879 219.838 87.354 222.267 89.0183C222.267 89.0183 229.029 88.0523 234.379 88.6467C237.797 89.0183 240.547 90.0586 240.696 92.2878C241.067 98.0839 226.354 129.219 226.354 129.219Z" fill="#FF8B66"/>
<path d="M234.677 88.721C232.373 88.4981 231.927 90.2815 229.624 91.0988C227.677 91.827 225.66 92.35 223.605 92.6593C222.564 92.7336 221.97 94.0712 221.97 94.0712C221.97 94.0712 221.598 92.2878 221.078 92.1392C220.558 91.9906 215.654 87.1605 214.613 84.634C217.278 85.8878 219.837 87.354 222.267 89.0182C222.267 89.0182 229.029 88.0522 234.379 88.6467L234.677 88.721Z" fill="#EF6E4B"/>
<path d="M204.805 238.081C205.102 235.926 204.284 234.44 204.879 233.399C205.473 232.359 206.662 233.771 206.662 233.771C206.737 231.393 210.749 231.393 211.195 232.508C211.288 232.793 211.413 233.067 211.567 233.325C211.79 232.73 212.235 232.136 212.756 232.508C214.985 233.771 212.235 237.115 214.242 239.567C216.248 242.019 215.208 247.443 215.208 247.443H203.17C201.758 240.83 204.433 240.161 204.805 238.081Z" fill="#CFD8DC"/>
<path d="M212.235 237.263C212.235 237.263 209.337 235.777 205.621 237.783L206.364 236.371C207.197 235.908 208.121 235.635 209.072 235.57C210.023 235.506 210.976 235.653 211.863 236L212.235 237.263Z" fill="#ADBEC4"/>
<path d="M212.681 239.567C210.106 238.764 207.325 238.95 204.879 240.087L205.622 238.675C205.622 238.675 209.189 237.114 212.235 238.303L212.681 239.567Z" fill="#ADBEC4"/>
<path d="M246.342 238.081C246.045 235.926 246.788 234.44 246.268 233.399C245.747 232.359 244.484 233.771 244.484 233.771C244.41 231.393 240.323 231.393 239.951 232.508L239.58 233.325C239.357 232.73 238.911 232.136 238.317 232.508C236.162 233.771 238.837 237.115 236.905 239.567C234.973 242.019 235.939 247.443 235.939 247.443H247.977C249.389 240.83 246.639 240.161 246.342 238.081Z" fill="#CFD8DC"/>
<path d="M238.912 237.263C238.912 237.263 241.736 235.777 245.526 237.783L244.782 236.371C243.948 235.913 243.024 235.642 242.074 235.578C241.124 235.514 240.172 235.658 239.284 236L238.912 237.263Z" fill="#ADBEC4"/>
<path d="M238.393 239.567C240.993 238.766 243.797 238.952 246.269 240.087L245.526 238.675C245.526 238.675 241.959 237.114 238.913 238.303L238.393 239.567Z" fill="#ADBEC4"/>
<path d="M221.375 76.0886C221.375 76.0886 222.267 86.5661 219.369 88.0522C219.369 88.0522 221.524 91.9906 227.246 89.6127C227.246 89.6127 226.28 84.1882 230.144 77.7977C232.67 73.4878 221.375 76.0886 221.375 76.0886Z" fill="#EF6E4B"/>
<path d="M231.927 72.4476C231.927 72.4476 234.082 69.9211 234.602 72.6705C235.122 75.4199 232.373 77.2776 231.704 76.3116C231.035 75.3456 231.927 72.4476 231.927 72.4476Z" fill="#FF8B66"/>
<path d="M215.505 73.8594C215.505 73.8594 212.978 71.7045 212.904 74.4539C212.829 77.2033 215.802 78.6894 216.248 77.6491C216.693 76.6088 215.505 73.8594 215.505 73.8594Z" fill="#FF8B66"/>
<path d="M224.794 84.5598C229.996 84.1883 232.745 80.5472 231.928 70.2927C231.556 65.0911 228.584 62.0445 222.788 62.4903C216.992 62.9362 214.688 66.3543 215.134 71.6302C215.951 82.5535 219.444 84.9314 224.794 84.5598Z" fill="#FF8B66"/>
<path d="M217.139 75.1226C217.138 75.2657 217.167 75.4073 217.224 75.5387C217.281 75.67 217.365 75.7882 217.469 75.8858C217.574 75.9834 217.697 76.0584 217.832 76.1061C217.967 76.1538 218.111 76.1732 218.253 76.1629C218.39 76.1956 218.532 76.2001 218.671 76.1763C218.809 76.1525 218.942 76.1008 219.06 76.0244C219.178 75.948 219.279 75.8484 219.358 75.7318C219.436 75.6151 219.49 75.4837 219.517 75.3455C219.517 75.2024 219.488 75.0608 219.431 74.9295C219.374 74.7982 219.291 74.68 219.186 74.5824C219.081 74.4847 218.958 74.4097 218.823 74.362C218.688 74.3143 218.545 74.295 218.402 74.3052C218.265 74.2726 218.123 74.2681 217.985 74.2919C217.846 74.3157 217.714 74.3673 217.595 74.4437C217.477 74.5202 217.376 74.6197 217.298 74.7364C217.219 74.8531 217.165 74.9845 217.139 75.1226Z" fill="#DB614D"/>
<path d="M227.839 74.6025C227.873 74.7422 227.935 74.8734 228.022 74.9878C228.109 75.1022 228.219 75.1974 228.345 75.2672C228.471 75.337 228.609 75.38 228.753 75.3935C228.896 75.407 229.04 75.3907 229.177 75.3456C229.845 75.2713 230.366 74.7511 230.291 74.2309C230.205 73.9598 230.019 73.7318 229.77 73.5936C229.521 73.4555 229.229 73.4176 228.954 73.4879C228.285 73.5622 227.765 74.0823 227.839 74.6025Z" fill="#DB614D"/>
<path d="M218.998 69.6239C219.073 69.6982 219.221 69.6239 219.295 69.5495C219.807 69.0241 220.495 68.7065 221.227 68.6579C221.306 68.6579 221.382 68.6265 221.438 68.5708C221.493 68.5151 221.525 68.4395 221.525 68.3606C221.45 68.212 221.376 68.1377 221.227 68.1377C220.332 68.1735 219.483 68.5449 218.85 69.178C218.775 69.3266 218.775 69.4752 218.924 69.5495C219.073 69.6239 218.924 69.6239 218.998 69.6239Z" fill="#F24052"/>
<path d="M226.502 68.212H226.651C227.384 68.1342 228.121 68.3185 228.731 68.7322C228.806 68.8808 229.029 68.8065 229.103 68.7322C229.136 68.6757 229.153 68.6116 229.153 68.5464C229.153 68.4812 229.136 68.4171 229.103 68.3606C228.758 68.0687 228.352 67.8572 227.915 67.7416C227.478 67.6259 227.021 67.6089 226.576 67.6919C226.517 67.6919 226.461 67.7153 226.419 67.7572C226.377 67.799 226.354 67.8557 226.354 67.9148C226.354 68.1377 226.428 68.212 226.502 68.212Z" fill="#F24052"/>
<path d="M219.74 72.3733C219.815 73.0421 220.112 73.488 220.483 73.488C220.855 73.488 221.152 72.8935 221.078 72.299C221.003 71.7046 220.706 71.1101 220.335 71.1101C219.963 71.1101 219.74 71.7046 219.74 72.3733Z" fill="#1A4850"/>
<path d="M226.947 71.7789C227.022 72.4476 227.319 72.8935 227.69 72.8935C228.062 72.8935 228.285 72.299 228.285 71.7046C228.285 71.1101 227.913 70.5156 227.542 70.5156C227.17 70.5156 226.947 71.1101 226.947 71.7789Z" fill="#1A4850"/>
<path d="M226.576 78.1693C226.576 78.1693 223.307 78.8381 221.598 78.095C221.598 78.095 222.712 80.4728 224.496 80.1013C224.985 79.999 225.438 79.7651 225.805 79.4247C226.171 79.0842 226.438 78.6502 226.576 78.1693Z" fill="#1A4850"/>
<path d="M221.523 71.9274C221.523 71.9274 220.929 70.367 220.26 70.5156C219.591 70.6642 219.294 72.0761 219.294 72.0761L218.328 71.6302H219.294C219.294 71.6302 219.666 70.144 220.26 70.144C220.855 70.144 221.523 71.9274 221.523 71.9274Z" fill="#1A4850"/>
<path d="M226.576 71.7045C226.576 71.7045 226.948 70.0697 227.542 70.1441C228.137 70.2184 228.805 71.5559 228.805 71.5559L229.623 70.9615L228.731 71.1844C228.731 71.1844 228.137 69.7725 227.542 69.8468C226.948 69.9211 226.576 71.7045 226.576 71.7045Z" fill="#1A4850"/>
<path d="M223.752 75.7172H224.124V75.197C223.966 75.197 223.815 75.1344 223.704 75.0229C223.592 74.9114 223.529 74.7602 223.529 74.6026C223.524 74.4757 223.547 74.3492 223.599 74.2331C223.651 74.117 223.729 74.0145 223.827 73.9338C223.901 73.8595 224.05 73.9338 224.124 74.0824L224.57 73.7852C224.476 73.6213 224.329 73.4948 224.153 73.427C223.977 73.3593 223.783 73.3546 223.604 73.4136C223.39 73.5456 223.215 73.7323 223.098 73.9544C222.98 74.1764 222.924 74.4259 222.935 74.6769C222.962 74.9089 223.052 75.129 223.197 75.3126C223.341 75.4963 223.533 75.6363 223.752 75.7172Z" fill="#DB614D"/>
<path d="M224.644 64.125C224.644 64.125 226.576 63.5306 227.394 66.4286C228.806 71.5559 229.772 79.8041 233.041 83.9653C235.493 86.9377 236.905 85.6744 236.905 85.6744C237.282 83.7178 237.154 81.6976 236.534 79.8041C235.568 76.906 236.831 66.28 233.041 62.4159C229.252 58.5519 222.712 61.0784 222.712 61.0784C222.712 61.0784 219.517 59.1464 216.396 61.0784C213.275 63.0104 212.384 71.4815 215.579 75.197C215.579 75.197 215.356 72.0017 216.768 70.8128C218.18 69.6238 218.923 62.5646 224.644 64.125Z" fill="#F24052"/>
<path d="M200.198 22.2894C199.009 26.1534 201.981 27.8625 199.752 30.5376C197.523 33.2127 196.334 30.8349 196.334 30.8349C195.142 28.6294 193.612 26.6237 191.801 24.8902C190.612 23.7013 191.504 23.7013 191.504 23.7013L191.132 23.404C190.241 22.7353 189.423 22.3637 190.315 22.0665C191.207 21.7693 193.882 23.627 193.882 23.627C190.761 20.1345 189.572 20.4317 190.389 20.1345C191.207 19.8372 194.699 22.2151 194.848 22.2894C193.287 19.9116 191.95 19.0942 192.841 19.0199C193.733 18.9455 196.928 22.8096 198.117 24.2957L198.563 24.8159C199.306 21.6206 200.198 22.2894 200.198 22.2894Z" fill="#FF8B66"/>
<path d="M198.118 24.2959L198.563 24.8161C198.258 25.1818 198.05 25.619 197.959 26.0867C197.868 26.5544 197.897 27.0376 198.043 27.4911C197.656 27.0445 197.45 26.4699 197.464 25.8792C197.477 25.2885 197.71 24.7241 198.118 24.2959Z" fill="#EF6E4B"/>
<path d="M194.177 25.6334C193.88 25.4104 192.245 23.85 191.502 23.7014L191.131 23.4041C191.8 22.884 193.88 25.2618 194.177 25.6334Z" fill="#EF6E4B"/>
<path d="M199.751 30.5376C199.751 30.5376 199.305 56.0253 198.042 61.0783C198.042 61.0783 202.649 77.0545 209.559 82.8506C209.559 82.8506 210.674 87.1605 204.655 95.7059C204.655 95.7059 192.989 74.8253 191.131 62.936L196.332 30.8348L199.751 30.5376Z" fill="#FF8B66"/>
<path d="M215.058 84.8572C215.653 86.9378 216.024 94.3686 223.009 98.1583C229.994 101.948 237.574 96.3749 239.654 90.2817C239.654 90.2817 240.472 89.0184 243.295 92.1394C243.295 92.1394 257.86 99.273 259.792 102.914C261.724 106.555 260.535 120.674 254.665 120.897C248.794 121.12 241.735 114.58 239.877 118.89C238.02 123.2 227.171 138.359 204.655 126.098C204.655 126.098 201.831 122.606 201.831 119.41C201.831 116.215 200.42 95.4089 200.42 95.4089C200.42 95.4089 192.097 93.0311 194.178 73.4137C194.178 73.4137 199.899 76.6089 199.751 66.1315C199.751 66.1315 204.432 63.9765 205.993 72.7449C207.033 78.6153 212.903 82.9251 212.903 82.9251C212.903 82.9251 214.167 81.5876 215.058 84.8572Z" fill="#105E99"/>
<path d="M263.061 110.196C268.04 108.115 278.963 99.1242 282.902 93.8483L280.524 91.6934C280.524 91.6934 267.668 100.462 262.764 102.022C257.86 103.583 255.185 106.406 255.779 109.899C256.374 113.391 262.021 110.642 263.061 110.196Z" fill="#FF8B66"/>
<path d="M286.989 86.4917C284.536 89.7613 281.415 88.3494 280.524 91.6933C280.004 93.7739 282.307 94.5913 282.307 94.5913C284.807 94.323 287.332 94.398 289.812 94.8142C291.447 95.1115 290.927 94.3684 290.927 94.3684L291.373 94.517C292.487 94.8885 293.23 95.2601 292.933 94.4427C292.636 93.6253 289.589 92.362 289.589 92.362C294.271 92.8822 294.717 94.0711 294.494 93.1794C294.271 92.2877 290.258 90.9502 290.109 90.8759C293.008 90.7273 294.419 91.3217 293.974 90.5787C293.528 89.8356 288.475 89.464 286.617 89.3897H285.948C288.029 86.8632 286.989 86.4917 286.989 86.4917Z" fill="#FF8B66"/>
<path d="M286.618 89.3899H285.95C285.835 89.8661 285.596 90.3031 285.256 90.6558C284.917 91.0085 284.489 91.2641 284.018 91.3962C284.622 91.4428 285.223 91.2634 285.704 90.8929C286.184 90.5223 286.51 89.9868 286.618 89.3899Z" fill="#EF6E4B"/>
<path d="M287.732 93.3281C288.178 93.4024 290.408 93.8483 290.928 94.3684L291.374 94.5171C291.448 93.6254 288.253 93.4024 287.732 93.3281Z" fill="#EF6E4B"/>
<path d="M146.919 144.155C148.94 137.293 152.133 130.832 156.356 125.058L165.793 126.618V126.47L166.536 126.618H166.685L176.419 128.625C179.461 134.628 181.805 140.961 183.404 147.499C186.228 158.571 177.905 186.511 177.905 186.511C177.905 186.511 182.587 199.589 171.663 233.771H166.536C166.536 233.771 168.468 191.192 167.725 186.511C166.982 181.829 166.239 167.488 166.685 156.119C166.071 156.217 165.447 156.242 164.827 156.193C164.827 167.636 163.489 182.498 162.746 186.511C162.003 190.523 162.3 233.845 162.3 233.845L157.173 233.696C147.439 199.143 152.566 186.214 152.566 186.214C152.566 186.214 143.723 155.153 146.919 144.155Z" fill="#FF8B66"/>
<path d="M190.908 92.288C190.537 86.4919 172.48 89.0184 172.48 89.0184C172.48 89.0184 160.665 80.8445 157.098 83.4453C155.761 84.337 155.166 89.9101 154.943 96.6721C153.606 99.05 152.417 102.691 154.869 106.035C154.869 115.918 155.315 125.355 155.315 125.355C158.3 127.604 161.769 129.124 165.446 129.795C169.123 130.465 172.905 130.268 176.493 129.219C176.493 129.219 180.877 120.079 184.741 110.716C185.805 109.815 186.633 108.666 187.151 107.37C187.669 106.075 187.862 104.673 187.713 103.286C189.645 98.3069 190.983 94.0714 190.908 92.288Z" fill="#0E3944"/>
<path d="M188.604 62.7131C183.329 53.7219 170.102 54.8365 165.495 60.7068C159.996 67.7661 162.968 84.2625 162.968 84.2625C162.968 84.2625 175.601 73.7108 183.18 88.1266C183.18 88.1266 194.475 72.7448 188.604 62.7131Z" fill="#FFB878"/>
<path d="M154.944 238.081C155.241 235.926 154.498 234.44 155.018 233.399C155.538 232.359 156.801 233.771 156.801 233.771C156.876 231.393 160.963 231.393 161.334 232.508L161.706 233.325C162.003 232.73 162.375 232.136 162.969 232.508C165.124 233.771 162.449 237.115 164.381 239.567C166.313 242.019 165.347 247.443 165.347 247.443H153.309C151.897 240.83 154.646 240.161 154.944 238.081Z" fill="#0E3944"/>
<path d="M162.375 237.263C162.375 237.263 159.551 235.777 155.762 237.783L156.505 236.372C157.352 235.912 158.289 235.64 159.251 235.576C160.213 235.512 161.177 235.657 162.078 236L162.375 237.263Z" fill="#205260"/>
<path d="M162.894 239.567C162.894 239.567 158.807 238.155 155.092 240.087L155.761 238.675C155.761 238.675 159.402 237.114 162.374 238.303L162.894 239.567Z" fill="#205260"/>
<path d="M174.188 238.081C173.891 235.926 174.709 234.44 174.114 233.399C173.52 232.359 172.331 233.771 172.331 233.771C172.256 231.393 168.244 231.393 167.798 232.508C167.705 232.793 167.58 233.067 167.426 233.325C167.203 232.73 166.758 232.136 166.237 232.508C164.082 233.771 166.758 237.115 164.751 239.567C162.745 242.019 163.785 247.443 163.785 247.443H175.823C177.235 240.83 174.56 240.161 174.188 238.081Z" fill="#0E3944"/>
<path d="M166.758 237.263C166.758 237.263 169.656 235.777 173.371 237.783L172.628 236.371C171.796 235.908 170.871 235.635 169.92 235.57C168.97 235.506 168.017 235.653 167.129 236L166.758 237.263Z" fill="#205260"/>
<path d="M166.312 239.567C168.888 238.764 171.669 238.95 174.115 240.087L173.372 238.675C173.372 238.675 169.805 237.114 166.758 238.303L166.312 239.567Z" fill="#205260"/>
<path d="M171.588 76.0886C171.813 80.1828 171.102 84.2743 169.508 88.0522C169.508 88.0522 171.663 91.9906 177.459 89.6127C177.459 89.6127 176.493 84.1882 180.283 77.7977C182.883 73.4878 171.588 76.0886 171.588 76.0886Z" fill="#EF6E4B"/>
<path d="M184.369 73.1163C184.369 73.1163 187.119 71.1843 186.896 73.9337C186.673 76.6831 183.552 77.872 183.18 76.7574C182.809 75.6428 184.369 73.1163 184.369 73.1163Z" fill="#FF8B66"/>
<path d="M168.096 70.2184C168.096 70.2184 166.238 67.469 165.421 70.1441C164.603 72.8192 167.13 74.9741 167.873 74.0824C168.616 73.1907 168.096 70.2184 168.096 70.2184Z" fill="#FF8B66"/>
<path d="M174.412 82.925C179.539 83.891 183.032 81.0673 184.889 71.0357C185.855 65.8341 183.849 62.193 178.053 61.0784C172.257 59.9637 169.285 62.7874 168.319 67.9147C166.312 78.7637 169.062 81.959 174.412 82.925Z" fill="#FF8B66"/>
<path d="M169.359 71.853C169.31 72.1371 169.366 72.4295 169.516 72.6755C169.667 72.9216 169.901 73.1046 170.177 73.1905C170.445 73.3 170.744 73.3075 171.018 73.2117C171.292 73.1159 171.521 72.9234 171.663 72.6704C171.811 72.2245 171.44 71.6301 170.845 71.3328C170.577 71.2234 170.278 71.2158 170.004 71.3116C169.73 71.4074 169.501 71.5999 169.359 71.853Z" fill="#DB614D"/>
<path d="M179.911 74.0823C179.901 74.2251 179.92 74.3684 179.968 74.5033C180.015 74.6382 180.09 74.7619 180.188 74.8665C180.286 74.9711 180.404 75.0544 180.535 75.1113C180.666 75.1682 180.808 75.1973 180.951 75.197C181.237 75.2642 181.537 75.2161 181.788 75.0631C182.038 74.9101 182.218 74.6645 182.289 74.3796C182.363 73.8594 181.843 73.3393 181.174 73.2649C180.899 73.2188 180.618 73.2771 180.384 73.4283C180.15 73.5796 179.981 73.8129 179.911 74.0823Z" fill="#DB614D"/>
<path d="M172.555 67.0232H172.926C173.556 66.6611 174.291 66.5297 175.007 66.6516C175.156 66.7259 175.304 66.6516 175.304 66.503C175.33 66.4337 175.329 66.3572 175.302 66.2885C175.274 66.2198 175.222 66.1638 175.156 66.1315C174.287 65.9686 173.389 66.1271 172.629 66.5773C172.594 66.5906 172.562 66.6127 172.538 66.6416C172.513 66.6705 172.496 66.7052 172.489 66.7424C172.481 66.7796 172.483 66.8181 172.495 66.8542C172.507 66.8903 172.527 66.9229 172.555 66.9489V67.0232Z" fill="#FFB878"/>
<path d="M180.208 67.6176H180.357C181.075 67.7474 181.729 68.1136 182.215 68.6579C182.289 68.8065 182.438 68.8065 182.586 68.7322C182.64 68.6886 182.677 68.6276 182.69 68.5598C182.704 68.492 182.693 68.4216 182.661 68.3607C182.1 67.678 181.305 67.2278 180.431 67.0974C180.283 67.0974 180.134 67.1717 180.134 67.3203C180.118 67.372 180.117 67.4269 180.13 67.4793C180.143 67.5316 180.17 67.5795 180.208 67.6176Z" fill="#FFB878"/>
<path d="M172.628 69.8467C172.554 70.5155 172.702 71.11 173.074 71.1843C173.445 71.2586 173.817 70.7384 173.891 70.144C173.966 69.5495 173.817 68.8807 173.52 68.8064C173.222 68.7321 172.777 69.2523 172.628 69.8467Z" fill="#1A4850"/>
<path d="M179.614 71.2586C179.54 71.9274 179.689 72.5218 180.06 72.5961C180.432 72.6704 180.803 72.1503 180.952 71.5558C181.1 70.9614 180.878 70.2926 180.506 70.2183C180.134 70.144 179.763 70.6641 179.614 71.2586Z" fill="#1A4850"/>
<path d="M177.682 77.2032C177.682 77.2032 174.412 77.0546 172.926 75.9399C172.926 75.9399 173.446 78.4664 175.229 78.5407C175.726 78.5938 176.226 78.4942 176.664 78.2552C177.103 78.0162 177.457 77.6492 177.682 77.2032Z" fill="#1A4850"/>
<path d="M174.412 69.8469C174.412 69.8469 174.263 68.2121 173.594 68.2121C172.926 68.2121 172.257 69.4753 172.257 69.4753L171.439 68.8065L172.331 69.1038C172.331 69.1038 173.074 67.7662 173.669 67.9148C174.263 68.0635 174.412 69.8469 174.412 69.8469Z" fill="#1A4850"/>
<path d="M179.391 71.0357C179.391 71.0357 180.134 69.5495 180.728 69.7725C181.323 69.9954 181.546 71.4072 181.546 71.4072L182.586 71.11H181.62C181.62 71.11 181.397 69.6238 180.802 69.4752C180.208 69.3266 179.391 71.0357 179.391 71.0357Z" fill="#1A4850"/>
<path d="M175.602 74.0824C175.676 74.2311 175.824 74.2311 175.973 74.3054L176.196 73.7852C175.75 73.6366 175.676 73.3394 175.75 73.1164C175.824 72.8935 176.047 72.522 176.196 72.522C176.345 72.522 176.419 72.5963 176.493 72.7449L177.013 72.5963C176.79 72.0018 176.345 71.9275 176.122 72.0018C175.899 72.0761 175.304 72.4477 175.156 72.9678C175.124 73.1765 175.149 73.3896 175.228 73.5855C175.306 73.7814 175.435 73.9529 175.602 74.0824Z" fill="#DB614D"/>
<path d="M167.798 72.0017C167.798 72.0017 165.643 65.7598 169.507 60.6325C173.371 55.5052 183.849 59.3693 185.781 63.3076C187.713 67.2459 183.923 75.1226 183.923 75.1226C183.923 75.1226 186.821 64.6452 181.025 62.8618C181.025 62.8618 180.282 65.5369 175.749 67.3946C171.217 69.2523 168.69 68.955 168.69 68.955L167.798 72.0017Z" fill="#FFB878"/>
<path d="M186.227 88.9441C186.227 88.9441 192.766 89.0184 208.965 105.292C211.194 107.521 208.668 114.58 201.98 110.196C195.292 105.812 189.645 100.462 188.159 102.32C188.159 102.32 184.294 93.031 186.227 88.9441Z" fill="#EF6E4B"/>
<path d="M209.931 104.326C209.856 98.9755 205.621 85.3771 202.277 79.804L199.379 81.1415C199.379 81.1415 202.574 96.3747 202.128 101.576C201.682 106.778 203.392 110.196 206.884 111.013C210.377 111.831 209.931 105.44 209.931 104.326Z" fill="#FF8B66"/>
<path d="M197.002 73.2648C199.083 76.7573 196.63 79.1352 199.38 81.1415C202.129 83.1478 202.724 80.6214 202.724 80.6214C203.394 78.204 204.421 75.8999 205.77 73.785C206.662 72.3731 205.77 72.5218 205.77 72.5218C205.77 72.5218 205.993 72.2988 206.068 72.2245C206.142 72.1502 207.479 70.8127 206.588 70.7384C205.696 70.6641 203.392 73.0419 203.392 73.0419C205.622 68.8806 206.885 68.955 205.993 68.8063C205.102 68.6577 202.278 71.9273 202.204 72.0016C203.17 69.3265 204.284 68.2119 203.392 68.2862C202.501 68.3605 200.272 72.9676 199.528 74.6767C199.4 74.8854 199.3 75.1103 199.231 75.3455C197.671 72.3731 197.002 73.2648 197.002 73.2648Z" fill="#FF8B66"/>
<path d="M199.528 74.6768C199.399 74.8854 199.299 75.1104 199.23 75.3455C199.603 75.6278 199.895 76.0027 200.078 76.4329C200.26 76.8632 200.327 77.3337 200.271 77.7977C200.542 77.275 200.617 76.6719 200.48 76.0988C200.344 75.5258 200.006 75.021 199.528 74.6768Z" fill="#EF6E4B"/>
<path d="M203.615 75.1228C203.838 74.7512 205.027 72.8935 205.77 72.522C206.513 72.1504 205.993 72.2991 206.067 72.2248C206.142 72.1504 203.838 74.6769 203.615 75.1228Z" fill="#EF6E4B"/>
<path d="M159.329 82.925C159.329 82.925 152.789 81.5875 133.618 94.1456C130.943 95.8547 131.983 103.285 139.488 100.462C146.993 97.6381 153.904 93.3282 155.019 95.4831C155.019 95.4831 160.295 87.3092 159.329 82.925Z" fill="#EF6E4B"/>
<path d="M132.873 93.0309C133.988 87.755 140.973 75.3456 145.357 70.5898L147.958 72.5219C147.958 72.5219 141.642 86.7147 141.047 91.9163C140.453 97.1179 138.075 100.09 134.508 100.165C130.941 100.239 132.65 94.1455 132.873 93.0309Z" fill="#FF8B66"/>
<path d="M151.898 65.2397C149.148 68.212 151.08 71.0358 147.959 72.5219C146.027 73.4136 144.764 71.333 144.764 71.333C144.6 68.8186 144.075 66.341 143.204 63.9765C142.609 62.416 143.427 62.7875 143.427 62.7875L143.204 62.3417C142.684 61.3757 142.163 60.7069 143.055 60.8555C143.947 61.0041 145.656 63.7535 145.656 63.7535C144.318 59.2207 143.055 58.9978 144.021 59.0721C144.987 59.1464 146.993 62.8619 146.993 62.9362C146.696 60.1125 145.805 58.7749 146.622 59.0721C147.439 59.3694 148.703 64.348 149.148 66.1314C149.182 66.3575 149.232 66.581 149.297 66.8002C151.378 64.2737 151.898 65.2397 151.898 65.2397Z" fill="#FF8B66"/>
<path d="M149.147 66.1313C149.181 66.3575 149.231 66.5809 149.296 66.8001C148.865 67.0044 148.494 67.3173 148.22 67.7082C147.947 68.099 147.78 68.5543 147.735 69.0294C147.581 68.4573 147.639 67.8485 147.898 67.3157C148.158 66.783 148.601 66.3622 149.147 66.1313Z" fill="#EF6E4B"/>
<path d="M144.987 65.6856C144.912 65.314 144.095 63.2334 143.426 62.7875L143.203 62.3417C144.095 62.1931 144.912 65.2397 144.987 65.6856Z" fill="#EF6E4B"/>
<path d="M155.241 123.423C155.241 123.423 133.171 153.667 140.082 185.693C140.082 185.693 147.587 192.604 153.458 190.226C159.328 187.848 165.347 196.468 170.623 193.719C175.899 190.969 180.431 188.889 184.073 190.375C187.714 191.861 193.807 185.693 193.807 185.693C193.807 185.693 191.132 150.248 177.682 126.841C177.682 126.841 166.759 131.894 155.241 123.423Z" fill="#FFB878"/>
<path d="M164.381 239.567C165.161 240.705 165.696 241.993 165.952 243.349C166.208 244.705 166.179 246.099 165.867 247.443H163.787C163.548 244.803 163.749 242.141 164.381 239.567Z" fill="#07262D"/>
<path d="M92.748 157.382C92.748 157.382 96.7607 170.089 106.569 187.105C106.569 187.105 104.935 205.162 132.874 238.601L136.739 236.446C136.739 236.446 122.323 202.859 120.019 192.901C117.716 182.944 118.682 169.643 111.176 148.836L92.748 157.382Z" fill="#FF8B66"/>
<path d="M109.764 131.82L96.5375 126.47C94.2339 133.826 88.2893 139.102 88.8094 150.62C89.0323 156.267 92.7478 162.138 92.7478 162.138C108.352 161.618 113.628 155.078 113.628 155.078L111.251 144.081C111.251 144.081 109.69 136.65 109.764 131.82Z" fill="#CE364C"/>
<path d="M78.4059 148.911C78.4059 148.911 77.9601 162.212 81.6012 181.532C81.6012 181.532 74.0217 197.954 89.1806 238.824L93.4905 238.081C93.4905 238.081 91.1869 201.595 92.3016 191.489C93.4162 181.383 99.2865 172.318 98.6921 146.979L78.4059 148.911Z" fill="#FF8B66"/>
<path d="M109.765 131.82L104.563 140.737L103.3 142.818L100.55 147.425L98.8412 159.685V160.503C85.4657 159.017 78.3321 163.178 78.3321 163.178L78.1835 161.989V161.618C78.1835 161.543 78.1835 161.543 78.1092 161.469C76.9203 157.753 75.1369 147.87 77.2175 141.183C80.6357 130.185 86.729 131.225 91.3361 125.058L109.765 131.82Z" fill="#F24052"/>
<path d="M86.5061 235.034C86.5061 235.034 88.2152 238.824 87.695 241.425C87.1749 244.025 85.6887 244.917 87.0262 247.444H97.5037C97.829 246.513 97.8829 245.508 97.6593 244.548C97.4356 243.588 96.9436 242.71 96.2405 242.019C94.9029 240.607 93.8626 233.919 93.8626 233.919C93.7249 233.91 93.5871 233.935 93.4619 233.993C93.3368 234.051 93.2283 234.14 93.1467 234.251C93.0651 234.363 93.013 234.493 92.9953 234.63C92.9775 234.767 92.9947 234.906 93.0452 235.034C93.0452 235.034 93.0452 231.913 90.4444 232.285C87.8436 232.656 87.9922 235.554 87.9922 235.554C87.9374 235.415 87.8533 235.29 87.7456 235.186C87.6379 235.083 87.5092 235.003 87.3682 234.954C87.2272 234.905 87.0772 234.886 86.9284 234.9C86.7797 234.914 86.6356 234.96 86.5061 235.034Z" fill="#0C476B"/>
<path d="M149.221 247.443H131.61C131.61 247.443 131.165 243.654 131.908 242.465C132.651 241.276 129.158 236.669 129.158 236.669C129.158 236.669 131.536 233.696 133.617 235.406C133.617 235.406 133.394 231.764 135.995 231.764C135.995 231.764 138.447 237.932 141.196 240.161L141.419 240.31C143.5 241.796 147.215 242.168 148.701 244.248C149.029 244.705 149.246 245.231 149.336 245.785C149.426 246.339 149.387 246.907 149.221 247.443Z" fill="#0C476B"/>
<path d="M99.5846 159.908L99.3617 160.428L98.7672 160.28C87.6953 157.233 80.1159 160.8 78.0353 161.989V161.617C78.0353 161.543 78.0352 161.543 77.9609 161.469C79.6553 160.509 81.4837 159.807 83.3854 159.388C82.8904 154.073 82.9152 148.722 83.4598 143.412C84.3515 134.866 92.7483 129.665 92.8226 129.665L93.1198 130.111C93.0455 130.185 87.1752 133.826 84.7973 139.994C92.5997 139.919 95.6463 130.185 95.7206 130.111L96.2408 130.259C96.1665 130.408 92.9712 140.588 84.723 140.588H84.6487C84.2703 141.512 84.0444 142.49 83.9799 143.486C83.4079 148.722 83.4079 154.004 83.9799 159.239C88.9178 158.14 94.0524 158.293 98.9159 159.685L99.5846 159.908Z" fill="#CE364C"/>
<path d="M105.232 134.346C105.232 134.42 104.489 142 100.996 147.796L101.442 148.093C105.009 142.223 105.752 134.495 105.826 134.421L105.232 134.346Z" fill="#CE364C"/>
<path d="M129.233 130.928C129.233 130.928 127.896 137.096 126.558 137.542C125.221 137.988 126.335 134.346 126.335 134.346C126.335 134.346 116.675 130.482 112.737 130.185C108.798 129.888 114.372 122.383 129.233 130.928Z" fill="#0C476B"/>
<path d="M127.525 132.043C127.525 132.043 117.419 127.436 110.36 127.807C103.3 128.179 120.094 104.772 124.329 107.149C128.565 109.527 129.382 129.07 127.525 132.043Z" fill="#0C476B"/>
<path d="M102.334 87.1607C102.334 87.1607 103.374 84.5599 108.353 84.1141C113.332 83.6682 117.864 88.8698 116.898 91.9907C115.932 95.1117 102.334 87.1607 102.334 87.1607Z" fill="#0C476B"/>
<path d="M110.358 65.0167C110.358 65.0167 109.987 58.4776 103.894 57.4372C97.8002 56.3969 92.9702 57.9574 95.1251 66.6515C97.2801 75.3455 95.8682 78.838 91.8556 79.2839C87.8429 79.7297 88.1402 74.974 88.1402 74.974C87.9359 76.2172 88.1831 77.4924 88.8373 78.5691C89.4915 79.6458 90.5094 80.4529 91.7069 80.8443C91.7069 80.8443 87.0998 81.2159 88.7346 84.1139C90.3694 87.0119 95.4967 86.5661 97.503 84.1139C97.503 84.1139 97.6516 86.0459 100.178 85.3771C99.8516 85.2601 99.5764 85.0327 99.4 84.7341C99.2235 84.4356 99.1571 84.0847 99.2121 83.7424C99.2864 82.4791 106.197 84.6341 108.352 76.5345C110.507 68.4349 106.197 67.023 106.197 67.023L110.358 65.0167Z" fill="#0E3944"/>
<path d="M121.95 90.8018C118.235 90.6531 118.086 94.2943 119.944 97.861C121.801 101.428 139.933 117.701 142.682 114.655C143.797 113.466 140.676 108.041 140.676 108.041C136.501 104.267 132.556 100.248 128.861 96.0033C125.814 92.5109 123.808 90.8761 121.95 90.8018Z" fill="#FF8B66"/>
<path d="M145.135 108.784C146.176 103.508 144.69 89.3898 142.46 83.2222L139.339 83.9653C139.339 83.9653 139.562 99.57 138.076 104.549C136.59 109.527 137.556 113.243 140.826 114.729C144.095 116.215 144.913 109.899 145.135 108.784Z" fill="#FF8B66"/>
<path d="M135.771 79.8041C139.115 82.1077 137.926 85.3029 141.345 85.9717C141.908 86.0795 142.49 85.9735 142.979 85.6745C143.363 85.3882 143.658 84.9987 143.829 84.5514C144 84.1041 144.04 83.6174 143.945 83.148C143.701 80.9764 143.676 78.7855 143.871 76.6089C144.094 74.8998 143.425 75.42 143.425 75.42C143.425 75.42 143.5 75.1227 143.5 74.9741C143.5 74.8255 144.168 73.1164 143.351 73.4136C142.534 73.7109 141.493 76.9061 141.493 76.9061C141.716 72.1504 142.831 71.7045 142.013 71.9275C141.196 72.1504 140.007 76.3117 139.933 76.4603C139.636 73.6366 140.156 72.1504 139.413 72.5962C138.67 73.0421 138.67 78.1694 138.67 80.0271V80.7701C135.994 78.7638 135.771 79.8041 135.771 79.8041Z" fill="#FF8B66"/>
<path d="M138.67 80.0271V80.7702C139.138 80.8489 139.575 81.058 139.93 81.3734C140.284 81.6888 140.543 82.0978 140.676 82.5536C140.704 81.961 140.516 81.3785 140.147 80.9139C139.778 80.4494 139.253 80.1343 138.67 80.0271Z" fill="#EF6E4B"/>
<path d="M142.533 78.6895C142.608 78.2436 142.905 76.0144 143.425 75.4199C143.945 74.8254 143.499 75.1227 143.499 74.974C143.499 74.8254 142.533 78.1693 142.533 78.6895Z" fill="#EF6E4B"/>
<path d="M116.525 90.5789C116.525 90.5789 121.504 88.4982 127.672 92.1393C131.537 94.6057 134.851 97.8438 137.406 101.651C137.406 101.651 137.48 90.7275 139.338 88.9441C139.338 88.9441 141.642 91.6192 144.465 92.1393C144.465 92.1393 151.822 107.298 147.14 116.661C142.459 126.024 128.786 116.661 128.786 116.661L116.525 90.5789Z" fill="#0C476B"/>
<path d="M91.1133 125.058C91.1133 125.058 94.7544 115.398 92.8967 109.899C89.7014 100.536 91.4105 92.5851 94.8287 90.2072C100.253 86.4175 111.697 90.7274 111.697 90.7274C111.697 90.7274 122.769 89.5385 123.883 92.9566C124.998 96.3748 127.673 109.973 122.397 117.255C117.121 124.538 109.765 135.832 109.765 135.832C109.765 135.832 94.0856 134.346 91.1133 125.058Z" fill="#CFD8DC"/>
<path d="M97.5031 130.928C97.5031 130.928 95.9426 136.13 94.0106 135.832C92.0786 135.535 83.6074 130.928 83.6074 130.185C83.6074 129.442 84.7964 127.807 84.7964 127.807C84.7964 127.807 84.3505 123.794 85.3908 123.423C86.4311 123.051 97.5031 130.928 97.5031 130.928Z" fill="#0C476B"/>
<path d="M115.338 88.944C115.338 88.944 126.93 109.007 126.336 134.346C126.336 134.346 131.611 133.009 132.577 123.497C133.543 113.986 130.2 95.8546 125.592 91.0989C125.592 91.0989 122.249 87.6807 115.338 88.944Z" fill="#105E99"/>
<path d="M105.529 88.0522C105.529 88.0522 114.149 118.964 97.5039 130.928C92.9196 130.469 88.6503 128.387 85.4659 125.058C80.4873 119.633 87.2493 90.2071 87.2493 90.2071C87.2493 90.2071 96.1663 84.3368 105.529 88.0522Z" fill="#105E99"/>
<path d="M107.313 97.7124C107.313 97.7124 107.238 88.4238 106.198 86.046C105.158 83.6681 102.334 87.1606 102.334 87.1606C102.334 87.1606 103.151 91.4705 107.313 97.7124Z" fill="#0C476B"/>
<path d="M119.053 96.8207C119.053 96.8207 120.094 87.6808 116.973 86.1203C113.852 84.5598 113.777 90.2072 113.777 90.2072C113.777 90.2072 116.527 89.91 119.053 96.8207Z" fill="#0C476B"/>
<path d="M109.986 78.0949C109.986 78.0949 110.729 84.4111 108.352 90.1328C108.352 90.1328 111.695 95.1115 114.891 91.8419C115.325 87.5099 116.64 83.3123 118.755 79.5068C121.133 75.1226 109.986 78.0949 109.986 78.0949Z" fill="#EF6E4B"/>
<path d="M104.859 78.318C104.859 78.318 102.035 76.5346 102.407 79.284C102.778 82.0334 105.825 83.0737 106.196 81.9591C106.568 80.8445 104.859 78.318 104.859 78.318Z" fill="#FF8B66"/>
<path d="M120.985 74.8997C120.985 74.8997 122.768 72.076 123.66 74.6767C124.551 77.2775 122.174 79.5811 121.356 78.7637C120.539 77.9463 120.985 74.8997 120.985 74.8997Z" fill="#FF8B66"/>
<path d="M115.188 87.8293C110.061 88.9439 106.494 86.2688 104.265 76.3115C103.076 71.1099 105.008 67.3945 110.73 66.1313C116.451 64.868 119.498 67.4688 120.687 72.5961C123.065 83.3708 120.464 86.6403 115.188 87.8293Z" fill="#FF8B66"/>
<path d="M119.796 76.5345C119.841 76.671 119.857 76.8154 119.844 76.9585C119.83 77.1017 119.787 77.2405 119.717 77.3661C119.648 77.4918 119.552 77.6017 119.438 77.6888C119.324 77.7758 119.192 77.8382 119.053 77.872C118.804 78.0118 118.512 78.0511 118.236 77.982C117.959 77.9129 117.72 77.7406 117.567 77.5005C117.493 77.2149 117.529 76.9123 117.666 76.6514C117.803 76.3905 118.033 76.19 118.31 76.0887C118.57 75.9727 118.863 75.9539 119.135 76.0357C119.408 76.1176 119.643 76.2945 119.796 76.5345Z" fill="#DB614D"/>
<path d="M109.392 79.2095C109.392 79.4927 109.285 79.7655 109.092 79.9725C108.899 80.1796 108.634 80.3053 108.351 80.3242C107.683 80.3985 107.088 80.1012 107.014 79.5811C106.94 79.0609 107.385 78.5408 108.054 78.3921C108.338 78.343 108.631 78.3988 108.877 78.5492C109.123 78.6996 109.306 78.9342 109.392 79.2095Z" fill="#DB614D"/>
<path d="M116.23 71.9273H116.081C115.449 71.5714 114.707 71.4653 114 71.6301C113.931 71.656 113.855 71.6552 113.786 71.6277C113.717 71.6002 113.661 71.5481 113.629 71.4815C113.629 71.3329 113.703 71.1843 113.852 71.1843C114.271 71.0625 114.711 71.026 115.145 71.0771C115.579 71.1281 115.998 71.2656 116.378 71.4815C116.527 71.5558 116.527 71.7044 116.453 71.853L116.23 71.9273Z" fill="#0E3944"/>
<path d="M106.643 74.0822H106.494C106.346 74.0079 106.346 73.8593 106.42 73.7107C106.951 73.0029 107.714 72.5034 108.575 72.2988C108.723 72.2988 108.872 72.3731 108.872 72.5218C108.872 72.6704 108.798 72.819 108.649 72.819C107.933 72.9923 107.301 73.4135 106.866 74.0079L106.643 74.0822Z" fill="#0E3944"/>
<path d="M116.451 74.6767C116.6 75.3455 116.451 75.94 116.08 76.0143C115.708 76.0886 115.336 75.6428 115.188 74.974C115.039 74.3052 115.188 73.785 115.559 73.7107C115.931 73.6364 116.302 74.0823 116.451 74.6767Z" fill="#1A4850"/>
<path d="M109.392 76.3116C109.541 76.906 109.318 77.5005 109.021 77.5748C108.724 77.6491 108.278 77.2033 108.129 76.5345C107.981 75.8657 108.129 75.3456 108.501 75.2713C108.872 75.1969 109.244 75.6428 109.392 76.3116Z" fill="#1A4850"/>
<path d="M111.846 82.0334C113.581 82.034 115.281 81.5446 116.75 80.6216C116.75 80.6216 117.345 84.4113 114.744 84.7085C112.143 85.0058 111.846 82.0334 111.846 82.0334Z" fill="#1A4850"/>
<path d="M114.668 74.7512C114.668 74.7512 114.817 73.1164 115.411 73.0421C116.006 72.9678 116.823 74.3053 116.823 74.3053L117.64 73.6365L116.749 73.9338C116.749 73.9338 115.931 72.6705 115.337 72.7449C114.742 72.8192 114.668 74.7512 114.668 74.7512Z" fill="#1A4850"/>
<path d="M109.764 76.0887C109.764 76.0887 108.946 74.6026 108.352 74.8255C107.757 75.0484 107.609 76.5346 107.609 76.5346L106.568 76.2373H107.534C107.534 76.2373 107.683 74.7512 108.277 74.6026C108.872 74.454 109.764 76.0887 109.764 76.0887Z" fill="#1A4850"/>
<path d="M113.331 79.2839L113.034 78.7637C113.48 78.5408 113.554 78.2436 113.48 78.0206C113.464 77.8881 113.404 77.7648 113.31 77.6704C113.216 77.5761 113.092 77.5162 112.96 77.5005L112.737 77.7234L112.217 77.5748C112.44 76.906 112.886 76.906 113.034 76.906C113.294 76.9581 113.531 77.0906 113.711 77.2848C113.892 77.479 114.006 77.7249 114.039 77.9879C114.072 78.2508 114.021 78.5175 113.894 78.7501C113.767 78.9826 113.57 79.1694 113.331 79.2839Z" fill="#DB614D"/>
<path d="M105.305 80.1014C104.858 78.3967 104.559 76.6563 104.414 74.8998C104.26 73.1246 104.713 71.3499 105.698 69.8653C106.683 68.3807 108.143 67.2739 109.838 66.7259C111.163 66.3365 112.547 66.1855 113.925 66.28C115.05 66.3951 116.124 66.8065 117.038 67.4723C117.952 68.1381 118.673 69.0344 119.127 70.0697C120.141 72.2581 120.913 74.5505 121.43 76.9061C121.996 74.4391 122.022 71.8787 121.505 69.401C120.613 64.7939 116.898 61.0041 108.203 62.8619C100.698 64.4966 97.5031 73.4879 105.305 80.1014Z" fill="#1A4850"/>
<path d="M116.155 65.1653C116.155 65.1653 115.189 72.2989 105.529 73.1906C105.529 73.1906 111.399 71.11 111.399 66.9487C111.399 66.9487 109.095 72.2246 103.522 71.6301C103.522 71.6301 103.002 63.159 116.155 65.1653Z" fill="#1A4850"/>
<path d="M86.7294 92.5107C91.4851 93.8483 94.606 101.502 93.64 102.394C92.674 103.285 70.4559 107.521 70.4559 107.521L83.98 126.99L81.6764 130.334C81.6764 130.334 60.5729 111.682 60.7215 105.292C60.8701 98.9012 86.7294 92.5107 86.7294 92.5107Z" fill="#FF8B66"/>
<path d="M84.0538 126.47C85.6509 126.634 87.2383 126.882 88.8095 127.213C90.6672 127.659 93.1194 128.179 93.1937 128.55C93.268 128.922 89.1067 128.55 89.1067 128.55C89.1067 128.55 92.5249 129.962 92.5992 130.482C92.6735 131.002 88.2893 130.111 88.2893 130.111C88.2893 130.111 91.0387 131.746 90.8901 132.266C90.7415 132.786 87.3233 131.523 87.3233 131.523C87.6595 132.358 88.0829 133.155 88.5866 133.9C88.5866 133.9 87.9921 134.272 86.5802 132.786C85.1684 131.3 83.1621 131.82 81.453 130.482C79.7439 129.145 82.4933 126.247 84.0538 126.47Z" fill="#FF8B66"/>
<path d="M87.248 90.2073C87.248 90.2073 95.4962 91.1733 95.8678 103.36C96.2393 115.546 77.8109 111.608 77.8109 111.608C77.8109 111.608 82.2694 116.81 80.9318 122.606C80.9318 122.606 75.8789 122.531 76.0275 125.058C76.0275 125.058 68.2994 125.578 60.72 115.026C53.1406 104.474 63.7666 92.8081 87.248 90.2073Z" fill="#0C476B"/>
<path d="M129.158 101.874C129.678 103.657 129.232 105.366 128.192 105.738C127.152 106.109 125.814 104.846 125.294 103.063C124.774 101.279 125.145 99.5702 126.186 99.1986C127.226 98.8271 128.564 100.09 129.158 101.874Z" fill="#0C476B"/>
<path d="M105.474 104.217C105.567 102.167 104.28 100.443 102.599 100.367C100.918 100.291 99.4804 101.891 99.3873 103.941C99.2942 105.99 100.581 107.714 102.262 107.79C103.943 107.867 105.381 106.267 105.474 104.217Z" fill="#0C476B"/>
<path d="M77.7378 99.05C75.8058 99.4958 73.8737 98.5298 73.5022 96.8951C73.1307 95.2603 74.3939 93.4769 76.4002 93.031C78.4066 92.5852 80.3386 93.6255 80.7101 95.2603C81.0817 96.8951 79.7441 98.6041 77.7378 99.05Z" fill="#105E99"/>
<path d="M87.4727 243.579C87.4727 243.579 90.2964 239.864 96.1667 242.836C96.1667 242.836 96.3896 245.437 93.6402 244.917C90.8908 244.397 89.3304 246.403 87.4727 243.579Z" fill="#105E99"/>
<path d="M148.701 244.248C144.986 246.032 137.258 241.796 137.258 241.796C138.447 242.019 140.304 240.979 141.419 240.31C143.5 241.796 147.215 242.168 148.701 244.248Z" fill="#105E99"/>
</g>
<defs>
<clipPath id="clip0_2_2992">
<rect width="320.64" height="248.933" fill="white" transform="translate(0.679688 0.219971)"/>
</clipPath>
</defs>
</svg>
