<svg width="49" height="50" viewBox="0 0 49 50" fill="none" xmlns="http://www.w3.org/2000/svg">
<path d="M34.8105 42.25C32.8096 44.2292 30.6251 43.9167 28.5221 42.9792C26.2967 42.0208 24.255 41.9792 21.9071 42.9792C18.9671 44.2708 17.4155 43.8958 15.6596 42.25C5.6963 31.7708 7.1663 15.8125 18.4771 15.2292C21.2334 15.375 23.1526 16.7708 24.7655 16.8958C27.1746 16.3958 29.4817 14.9583 32.0542 15.1458C35.1371 15.3958 37.4646 16.6458 38.9959 18.8958C32.6259 22.7917 34.1367 31.3542 39.9759 33.75C38.8121 36.875 37.3013 39.9792 34.7901 42.2708L34.8105 42.25ZM24.5613 15.1042C24.2551 10.4583 27.9505 6.625 32.1971 6.25C32.7892 11.625 27.4196 15.625 24.5613 15.1042Z" fill="black"/>
</svg>
